<?xml version="1.0" encoding="UTF-8"?>
<svg xmlns="http://www.w3.org/2000/svg" viewBox="0 0 1350 1350">
  <defs>
    <style>
      .cls-1 {
        fill: #e4c7b8;
      }

      .cls-1, .cls-2, .cls-3, .cls-4 {
        stroke-width: 0px;
      }

      .cls-2 {
        fill: #56453f;
      }

      .cls-3 {
        fill: #f0f0e5;
      }

      .cls-4 {
        fill: #c39e88;
      }
    </style>
  </defs>
  <g id="bg02">
    <rect class="cls-3" width="1350" height="1350"/>
  </g>
  <g id="decorate02">
    <g>
      <path class="cls-1" d="m899.7711,899.1666c26.1872,24.5555,54.7177,51.6972,80.6551,76.7145,20.3001,19.0494,40.4664,38.2414,58.7328,59.2944,6.163,6.9508,12.2165,14.0111,17.9617,21.3793.1369.1755.1055.4288-.07.5657-.1487.116-.3536.1108-.4959-.0002-7.3673-5.7475-14.4262-11.8029-21.3759-17.9675-21.0484-18.2718-40.2347-38.4422-59.2788-58.7472-9.6222-9.968-28.9481-30.1472-38.4888-40.1949-12.7316-13.4964-25.5453-26.9108-38.206-40.4783-.1508-.1615-.1421-.4148.0195-.5656.1544-.1443.3938-.1416.5462,0h0Z"/>
      <path class="cls-1" d="m916.9557,877.4426c25.417,20.048,62.0349,49.5819,87.6405,70.1961,22.1033,17.3259,44.082,34.8059,64.3406,54.3063,6.8212,6.4276,13.5428,12.9738,19.9841,19.8535.1521.1625.1437.4175-.0187.5696-.1379.1291-.3432.142-.4949.0438-7.9132-5.1217-15.5462-10.5769-23.0797-16.1505-22.7819-16.4825-43.8766-35.0285-64.8413-53.7172-10.5783-9.1386-31.7662-27.7396-42.1956-37.0503-13.9498-12.4863-27.9729-24.8828-41.8538-37.4423-.1639-.1483-.1765-.4013-.0282-.5652.1418-.1568.3832-.1722.547-.0438h0Z"/>
      <path class="cls-1" d="m914.8383,843.5991c25.9511,16.4308,54.2211,34.7659,79.8894,51.849,6.6339,4.3589,13.2771,8.7057,19.9465,13.0168,13.3142,8.6819,25.9505,18.3119,38.2415,28.3911,6.1446,5.0526,12.1911,10.2407,17.9732,15.7909.161.1545.1662.4103.0117.5714-.1269.1322-.3228.1589-.4777.0788-21.0504-11.2672-41.132-24.1526-60.2954-38.347-4.7276-3.586-14.2865-10.7305-19.06-14.2519-9.5807-6.9726-28.8654-21.0865-38.4069-28.1146-12.7422-9.4623-25.5664-18.8094-38.2757-28.3253-.177-.1325-.213-.3834-.0805-.5604.1257-.1679.3592-.2081.5339-.0988h0Z"/>
      <path class="cls-1" d="m923.1812,817.8308c14.187,8.2709,29.9919,16.1882,44.4786,24.0094,15.5164,8.6498,41.0679,23.25,56.517,32.1221,6.248,3.5503,18.9046,10.6138,25.2054,14.071,16.8487,9.3009,33.1767,19.4259,49.4408,29.7121,8.1204,5.1732,16.2379,10.3586,24.1852,15.9099.1831.1263.2292.3771.1029.5601-.1077.1562-.3085.2116-.4781.1465-9.0282-3.5291-17.8561-7.4825-26.5433-11.698-25.2709-11.7973-51.622-28.0831-75.1919-43.206-12.218-7.5959-36.7907-22.9743-48.9596-30.6468-16.1624-10.3309-33.1965-19.4973-49.1816-30.3023-.1835-.1232-.2324-.3718-.1093-.5553.118-.1757.3532-.2267.5339-.1227h0Z"/>
      <path class="cls-1" d="m917.8755,787.5247c43.1409,18.9036,96.386,43.6615,139.4922,63.1964,28.0722,12.2465,55.6092,25.6351,82.6693,39.9793,0-.0002-.7625-.2118-.7625-.2118,2.459.4072,4.822,1.1129,7.0714,1.9783,6.593,2.549,12.3906,6.6463,18.2411,10.3899.1869.1198.2415.3685.1217.5554-.1048.1637-.3086.2256-.4831.1584-8.534-3.3119-16.8039-7.678-26.0002-8.2513-19.0828-7.5882-37.9731-15.655-56.4954-24.5126-31.278-15.4336-77.9202-39.1545-109.5266-54.9295.0005,0-54.6693-27.6291-54.6693-27.6291-.1973-.0997-.2763-.3404-.1767-.5376.0962-.1903.3251-.27.5181-.1858h0Z"/>
      <path class="cls-1" d="m898.2236,756.1947c45.7122,14.5799,91.024,30.4503,136.5883,45.4415,28.3774,8.9388,57.285,18.7494,84.7828,30.3271,16.6522,6.931,33.1749,14.0709,49.3644,22.0902.1989.0987.28.3398.1813.5386-.0871.1754-.2852.2591-.4672.2086-11.6125-3.2154-23.0714-6.8244-34.4817-10.5512-5.7201-1.8241-11.3849-3.7914-17.0796-5.6772-20.9478-7.0469-42.7882-15.0716-63.2821-23.1617-29.4339-10.7122-59.3302-21.8426-88.5781-32.9076-22.404-8.5954-44.8436-17.0709-67.2907-25.5527-.2067-.078-.3111-.3089-.2331-.5156.0754-.1997.2946-.3035.4957-.24h0Z"/>
      <path class="cls-1" d="m904.742,735.9448c57.0223,13.7739,126.2159,31.6591,183.3614,45.726,24.0651,5.9358,49.0135,13.3005,72.6963,20.6719,12.0294,3.7705,24.0201,7.6906,35.9022,12.0326.2086.0752.3168.3053.2415.514-.0668.1853-.2576.2909-.4452.2596-12.4666-2.1248-24.8245-4.6716-37.1436-7.3679-24.6245-5.3782-49.1122-11.3852-73.3065-18.4616-24.4703-7.2546-83.6466-24.1303-108.955-31.3937-24.1831-7.074-48.3979-14.0364-72.5577-21.2081-.2121-.0621-.3337-.2843-.2717-.4964.0601-.2052.2727-.3251.4783-.2764h0Z"/>
      <path class="cls-1" d="m904.0118,714.6885c32.7252,4.6138,68.58,9.9552,101.3554,15.0888,25.3767,3.5882,50.726,7.3701,75.5829,13.7655,8.3086,2.0345,16.5902,4.2215,24.7957,6.8375.2124.0677.3296.2948.262.5071-.0566.1771-.2244.288-.4016.2807-8.6057-.3583-17.1353-1.1456-25.6379-2.0851-25.5425-2.522-50.65-7.667-75.7174-13.0042-12.5144-2.4608-37.7311-7.5314-50.2242-10.1042-16.7171-3.5045-33.4546-6.8949-50.1543-10.4983-.2162-.0467-.3535-.2596-.3069-.4757.0444-.2058.2412-.34.4463-.3121h0Z"/>
      <path class="cls-1" d="m891.1236,692.7318c54.641,3.7023,126.2403,9.6856,181.2716,13.8321,46.9507,3.047,94.1022,7.8977,140.5802,15.101.2188.0354.3676.2415.3323.4604-.0316.1953-.2017.3347-.3928.3374-13.5137.1174-26.998-.2335-40.4691-.7724-26.5106-1.1041-54.266-2.8983-80.6165-5.819-57.6752-6.3709-142.9292-15.6233-200.7791-22.3431-.2194-.0248-.3771-.223-.3521-.4425.0242-.2132.2136-.368.4255-.3539h0Z"/>
      <path class="cls-1" d="m882.9538,674.5874c64.4137-1.5335,142.9028-2.2643,207.5293-3.5521,27.2211-.5364,55.7872.0776,83.012,1.1494,13.8351.5568,27.6702,1.2682,41.505,2.4151.221.0183.3852.2122.3668.4331-.0163.1985-.1749.3512-.367.3669-13.8357,1.1459-27.6712,1.8562-41.5065,2.4119-27.2324,1.07-55.7858,1.6815-83.0112,1.1435-28.0223-.6368-95.6043-1.5356-124.5175-1.9647-27.6695-.5396-55.34-.9631-83.0107-1.6031-.2209-.005-.396-.1881-.391-.409.0048-.2144.1787-.3856.3908-.391h0Z"/>
      <path class="cls-1" d="m868.3204,657.7326c63.7524-7.0325,141.5358-14.4685,205.5208-21.2749,26.9479-2.852,55.3264-4.672,82.4061-6.11,13.7632-.6987,27.5419-1.2437,41.3648-1.3552.2216-.0032.4038.174.4069.3956.0027.1989-.1422.3665-.3317.4008-13.6084,2.3944-27.261,4.3554-40.9291,6.1625-40.9621,5.7688-82.2163,8.4934-123.4649,11.1848-48.4264,3.4841-117.0866,8.3909-164.9015,11.3931-.2211.0151-.4119-.1514-.427-.3719-.0145-.2139.1449-.4003.3556-.4248h0Z"/>
      <path class="cls-1" d="m870.7322,639.9768c64.9156-12.9857,144.2094-27.6878,209.3822-40.4695,27.4505-5.3774,56.4604-9.8614,84.1946-13.6557,14.0959-1.9163,28.2187-3.6805,42.4177-5.0157.2206-.021.4165.1409.4374.3615.0189.1989-.1111.3776-.2984.4263-13.8006,3.5932-27.6775,6.7575-41.5813,9.7696-27.3723,5.9055-56.1604,11.5946-83.8033,15.9151-28.4667,4.3651-97.0082,15.5195-126.3401,20.2479-28.0914,4.3977-56.1637,8.9099-84.2724,13.2088-.2184.0335-.4226-.1165-.4559-.335-.0325-.2121.1113-.4114.3195-.4533h0Z"/>
      <path class="cls-1" d="m889.691,616.4122c7.6532-2.2481,40.6876-12.5582,47.582-14.1934,41.3067-10.9247,83.1779-22.9171,124.3179-34.511,25.4716-6.9079,51.3477-12.9202,76.9857-19.1064,5.9949-1.4363,23.0093-5.5293,28.8993-6.9536,9.6575-2.381,19.5186-3.7216,28.9653-6.7774.2103-.07.4376.0439.5075.2544.0622.1868-.0234.3883-.19.4798-5.8958,3.1876-12.3107,5.2958-18.5786,7.4147-6.322,2.0377-12.4936,4.2958-18.7879,6.3624-29.8219,9.9838-60.4164,17.9292-91.2614,24.0561-44.7563,10.7619-89.9945,22.8369-134.9997,32.613-1.9217.4328-40.1574,10.3609-43.231,11.1335-.2142.0553-.4323-.0733-.4876-.2872-.0543-.2112.0705-.4262.2785-.4849h0Z"/>
      <path class="cls-1" d="m911.5948,588.4322c52.0175-20.4587,115.8027-44.3231,168.0804-64.6132,16.6211-6.503,33.9632-12.3432,50.8989-18.0401,17.1253-5.6768,34.2495-11.1829,51.7191-15.8443.2139-.059.4349.0666.4939.2804.0521.1887-.0431.3848-.2123.4684-10.8507,5.2473-21.8595,10.0886-32.924,14.7857-33.0538,14.4346-67.2341,25.8726-101.3937,37.3332-40.0113,13.7513-96.7624,33.2232-136.3866,46.3809-.2096.0715-.437-.0402-.5083-.2494-.0689-.202.037-.4226.2326-.5016h0Z"/>
      <path class="cls-1" d="m919.2841,560.5545c9.8071-5.5607,24.7664-14.0921,34.5712-19.3702,2.9013-1.5761,5.7419-3.2834,8.6069-4.9457,5.7632-3.3385,12.0112-5.6072,18.436-7.3717,3.245-.8531,6.5491-1.5695,10.0273-1.8645.2329-.0198.4378.1531.4576.386.0112.1333-.0428.2595-.1328.3451-2.543,2.389-5.2472,4.3854-7.9976,6.2736-2.7554,1.8774-5.5748,3.606-8.4525,5.2106-5.7234,3.3199-12.1046,5.2129-18.1848,7.7408,0,0-9.1556,3.7782-9.1556,3.7782-8.9293,3.5562-18.7943,7.4406-27.845,10.5462-.2094.0732-.4385-.0371-.5118-.2465-.0648-.1854.0166-.3876.1811-.4819h0Z"/>
      <path class="cls-1" d="m909.7509,539.2136c32.953-20.4125,81.1056-49.5953,114.7642-69.9965,28.6268-17.6542,57.1498-35.5257,87.4773-50.182,10.0409-5.0156,20.1541-9.894,30.4684-14.3857.2034-.0886.4401.0045.5286.2079-17.6416,13.6012-37.8889,24.7492-56.8347,36.6979-19.0646,11.7696-38.8851,22.2199-58.4107,33.1876-34.4734,19.2988-83.3488,46.5668-117.5977,65.1662-.1945.1057-.4374.0339-.5428-.1602-.1032-.19-.0364-.4265.1474-.5352h0Z"/>
      <path class="cls-1" d="m885.0128,528.5898c41.6843-32.9009,85.6626-64.7084,128.6672-95.993,17.0304-12.3938,35.6254-24.351,53.6355-35.2947,9.163-5.549,18.4169-10.9615,27.9181-16.0046.1963-.1042.4398-.0296.5439.1667.0905.1703.0459.3764-.0957.4959-28.6864,23.807-59.5928,45.7509-90.9308,65.9341-22.165,14.653-44.5914,29.8423-66.4564,44.8735-17.6985,12.0092-35.2419,24.2427-52.8054,36.4648-.1815.1263-.4309.0816-.5571-.0998-.1214-.1745-.0837-.4127.0807-.5429h0Z"/>
      <path class="cls-1" d="m883.0538,499.8998c19.5567-16.7604,43.0899-38.6998,62.5639-55.7493,12.6101-10.9317,25.7923-21.5321,38.3039-32.5625,21.0129-18.3817,41.4784-37.4272,63.6029-54.5129,13.2413-10.3603,26.6995-20.4271,40.8915-29.4945.1872-.1194.4357-.0644.5551.1228.1043.1635.0745.3748-.0593.505-12.0628,11.7307-24.4321,22.955-36.8348,34.2629-30.2584,27.6602-64.6524,54.8228-97.0041,79.9659-23.8338,19.1111-47.2943,39.4605-71.5145,58.0836-.1755.1344-.4266.1011-.5611-.0743-.1295-.169-.1025-.4091.0565-.5467h0Z"/>
      <path class="cls-1" d="m886.7313,462.6843c22.5948-24.2321,47.5852-50.6179,70.635-74.5935,17.5298-18.785,35.2027-37.4367,54.7352-54.1869,6.4442-5.6581,12.9979-11.2066,19.8596-16.4468.1771-.1353.4304-.1014.5657.0757.1128.1479.1075.3491,0,.4901-5.2408,6.862-10.7896,13.4158-16.4475,19.8603-16.7511,19.5318-35.4021,37.2038-54.1877,54.7328-9.2115,8.8678-27.8646,26.6722-37.1555,35.4583-12.4833,11.7215-24.8845,23.525-37.4389,35.1756-.162.1504-.4152.1411-.5657-.0208-.1433-.1543-.1405-.3926,0-.5448h0Z"/>
      <path class="cls-1" d="m871.4755,440.8256c9.5564-11.7833,22.0909-29.8521,31.047-42.3616,2.5597-3.5657,5.0315-7.2154,7.5716-10.8258,5.1183-7.2281,11.2887-13.7541,18.1115-19.4113,3.4309-2.8297,6.9718-5.4872,10.8037-7.8897.1933-.1215.4486-.0632.57.1301.0822.1309.0815.2908.013.4177-2.1679,3.9806-4.7043,7.6331-7.2562,11.2025-5.1694,7.0551-10.1729,14.0441-16.0629,20.5049-2.9307,3.2316-5.8828,6.4613-8.7045,9.8081-8.2309,9.7669-17.3377,20.497-26.1629,29.6462-3.0144,3.2049-6.1588,6.2921-9.3427,9.3218-.1604.1526-.4141.1463-.5667-.0141-.1395-.1466-.1434-.3748-.0209-.5288h0Z"/>
      <path class="cls-1" d="m839.5477,439.3061c1.915-3.4934,4.8532-6.6262,5.7002-10.5366.0313-.1465.1037-.2615.204-.3603l2.1174-2.2488c2.4003-2.1722,3.1833-5.0383,4.5468-7.8765,14.6097-20.1819,27.9103-41.2003,41.5756-62.0367,3.7676-4.8872,7.3499-9.9153,10.8668-15.0374l10.4651-15.417c3.2998-5.8163,8.506-14.2156,12.8222-20.5956,9.133-13.4982,19.1589-26.2993,29.12-39.1593,5.0169-6.3867,9.9896-12.8011,15.1076-19.1743.1392-.1735.3928-.2012.5663-.062.1481.1189.1897.3213.1123.4858-3.4897,7.4091-7.4785,14.5532-11.6109,21.5944-8.3278,13.973-17.3111,27.541-26.398,40.9823-4.5902,6.7638-9.2564,13.4583-13.7668,20.258-7.5889,9.8198-14.7575,20.0465-22.733,29.6298-13.6588,19.3507-28.925,40.7891-44.3594,59.8788l.1099-.1763c-.9038,1.7263-1.7032,3.747-2.991,5.5407-1.2148,1.7055-3.0354,3.0874-4.4546,4.5105,0,0,.2038-.3601.2038-.3601-1.1683,4.1502-4.3045,7.0897-6.5163,10.5689-.1184.1865-.3656.2419-.5523.1235-.1794-.1138-.2366-.3482-.1357-.5318h0Z"/>
      <path class="cls-1" d="m804.3536,450.0645c21.4803-39.8261,45.5691-83.2064,67.3782-123.0464,13.0215-24.0925,28.9483-53.2227,44.0364-75.8791,9.5488-14.731,19.0195-29.4117,28.8802-43.9837.1244-.1839.3743-.232.5581-.1076.1617.1094.2181.3163.1449.4895-6.8776,16.2243-15.0421,31.8143-23.5246,47.2259-8.3216,14.8656-17.542,31.0083-26.3991,45.4401-16.9604,27.5925-37.233,62.364-54.0403,90.2569-12.1206,20.003-24.1391,40.0615-36.3428,60.0077-.1153.1885-.3616.2478-.5501.1325-.1838-.1125-.2446-.3497-.1409-.5358h0Z"/>
      <path class="cls-1" d="m781.8461,444.3892c20.0637-47.0552,45.5469-103.9201,65.9062-151.0278,6.1457-14.4324,14.5537-30.2936,21.6825-44.3676,7.6249-14.6499,15.3538-29.2329,24.2744-43.181.1198-.187.3686-.2415.5556-.1217.1629.1044.2249.3073.159.4813-5.8667,15.4646-12.1286,30.6553-18.606,45.839-6.3918,15.1285-13.7079,30.0224-20.9276,44.7811-9.9028,19.9009-33.2187,68.1998-43.2308,88.8329-9.7004,19.6975-19.2968,39.4466-29.0897,59.1048-.0985.1978-.3387.2783-.5364.1797-.1928-.0959-.2739-.3267-.1872-.5207h0Z"/>
      <path class="cls-1" d="m765.2562,425.9266c19.6315-54.0195,36.2471-110.2249,55.2721-164.5083,9.1871-22.6123,20.3883-50.5122,30.2755-72.7506.0913-.2027.3295-.2931.5322-.2019.1754.0788.2665.2685.2288.4493-2.1662,10.3522-4.8695,20.5571-7.8592,30.6738-5.6928,19.8848-13.5214,40.1608-21.0125,59.4782-11.5556,29.3345-22.0628,59.0519-33.2074,88.565-7.5328,19.6459-15.1817,39.2572-23.4855,58.5883-.0872.2031-.3225.297-.5256.2098-.1948-.0837-.2881-.3066-.2184-.5036h0Z"/>
      <path class="cls-1" d="m742.6378,421.0265c11.9162-49.9153,25.8148-101.3893,37.1638-151.4757,1.3484-5.6504,3.0606-11.2659,4.7254-16.8288,3.9668-14.8405,9.6358-35.0964,13.9631-49.8381,4.919-16.6495,9.8652-33.2576,15.8851-49.585.0769-.2082.3081-.3146.5163-.2377.1828.0676.287.2545.2577.4398-2.7198,17.1848-6.1242,34.1627-9.82,51.1363-3.7663,16.9603-7.962,33.887-13.2533,50.4802-1.898,5.4156-3.8513,10.7615-5.4292,16.2918-3.2416,11.0424-5.8774,22.3141-9.0644,33.4277-3.1074,10.7109-11.2838,38.9021-14.4822,49.9338-6.5665,22.1463-13.022,44.327-19.6883,66.458-.0605.215-.2866.3396-.5005.2747-.2041-.0614-.3226-.2724-.2735-.477h0Z"/>
      <path class="cls-1" d="m718.4536,426.5065c7.9906-55.2736,18.8525-122.4525,27.1179-177.8699,3.5538-23.6879,8.1028-47.3225,13.7609-70.6025,2.7289-11.6753,5.5582-23.3733,9.0453-34.9092.0643-.2125.2885-.3326.501-.2684.1874.0566.3029.2382.2833.426-1.2362,11.9734-2.6575,23.8758-4.297,35.7773-.9805,7.3672-2.1816,14.8951-3.3847,22.2502-2.3084,16.2378-4.9598,32.706-8.1229,48.7768-4.7643,23.836-15.6047,81.3301-20.2944,105.9559-4.6117,23.5297-9.1096,47.0827-13.8212,70.6009-.0434.2167-.2543.3572-.4709.3138-.2094-.0419-.3473-.2421-.3173-.4509h0Z"/>
      <path class="cls-1" d="m694.5928,446.4626c3.7218-60.1627,9.3904-133.3737,13.3743-193.7137,1.6841-25.4155,4.6238-51.9844,7.9102-77.2606,1.6821-12.8446,3.5182-25.6757,5.7882-38.4686.0388-.2184.2472-.3639.4655-.3252.1947.0345.3314.2044.3315.3954.0139,12.994-.406,25.9498-.98,38.892-1.1534,25.4701-2.8712,52.135-5.626,77.4611-2.918,26.0589-9.3211,88.9622-12.1048,115.8699-2.7925,25.7389-5.4694,51.4887-8.3619,77.2197-.0247.2196-.2227.3776-.4424.3529-.2126-.0239-.3674-.2117-.3546-.4229h0Z"/>
      <path class="cls-1" d="m674.5999,437.2961c-1.5359-58.6416-2.2696-130.0989-3.5598-188.9349-.5375-24.783.0755-50.7914,1.1463-75.5742.5563-12.5957,1.267-25.1914,2.4135-37.787.0201-.2209.2155-.3837.4364-.3636.1962.0178.3465.1741.3636.3636,1.1464,12.5956,1.8572,25.1913,2.4135,37.787,1.0708,24.7897,1.6835,50.7868,1.1465,75.574-.6357,25.5116-1.532,87.0387-1.96,113.3619-.5386,25.1905-.9611,50.3818-1.6,75.5732-.0056.2209-.1892.3954-.4102.3899-.2137-.0055-.384-.1786-.3898-.3899h0Z"/>
      <path class="cls-1" d="m652.6797,424.5367c-5.2926-46.0293-12.6408-113.4909-17.9541-159.3181-2.4244-20.9023-3.7247-42.9588-4.3739-64.0048-.3094-10.7017-.4345-21.4164-.0947-32.1588.007-.2221.1927-.3964.4148-.3894.1918.0061.3485.1489.383.3298,1.0094,5.2819,1.8215,10.5767,2.646,15.8693.7943,5.2953,1.5708,10.5906,2.2593,15.8923,3.6245,26.2745,6.2212,53.2273,7.6891,79.7475.6853,10.4518,4.9522,68.2708,5.8026,79.9484,1.4028,21.3351,2.8783,42.6647,4.0251,64.017.012.2207-.1571.4093-.3778.4213-.2124.0116-.3952-.1461-.4194-.3545h0Z"/>
      <path class="cls-1" d="m631.2133,428.9382c-11.7987-55.045-24.2552-122.495-35.191-177.8999-4.589-23.3391-8.2475-48.0318-11.2848-71.6389-1.5344-11.9998-2.927-24.0246-3.9015-36.1259-.0179-.2212.1469-.415.368-.4329.1954-.0158.3695.1112.4198.2935,4.8346,17.5481,8.739,35.2536,12.4786,53.0349,4.8686,23.0267,9.1017,48.1533,12.4129,71.4497,1.0729,7.6118,23.7128,149.9232,25.4845,161.1731.0347.2188-.1141.4238-.3324.4584-.2109.0335-.4097-.1056-.4541-.312h0Z"/>
      <path class="cls-1" d="m612.1779,441.8668c-3.7467-10.5614-5.8866-21.5799-8.9475-32.3108-3.3679-10.6341-7.1022-21.187-10.4941-31.8299-7.5852-24.893-13.993-50.3158-21.4293-75.2332-2.295-7.2155-6.1049-25.1545-8.0004-32.7147-9.1666-26.7094-17.032-57.9631-23.0192-86.7301-1.9882-9.8109-3.8887-19.6382-5.4376-29.5499-.0342-.2193.1157-.4247.3349-.459.1941-.0303.3774.0839.4407.2626,12.9682,37.8052,24.2497,76.3756,35.0679,114.8349.8006,4.1373,4.5663,23.6747,5.2888,27.3409.868,3.6188,3.2282,12.4504,4.1606,16.1814,5.4606,21.7009,10.4555,43.4392,16.136,65.0453,2.9536,10.7803,6.2451,21.4512,9.1811,32.2508,2.652,10.8706,4.2609,21.9634,7.4778,32.6611.0648.2113-.054.435-.2652.4998-.205.0628-.4226-.0497-.4945-.2492h0Z"/>
      <path class="cls-1" d="m591.7156,445.3314c-16.5387-39.4757-33.0045-81.3252-48.7516-121.1574-6.4552-16.1186-11.9578-32.8164-16.5568-49.559-2.347-8.4037-4.547-16.8558-6.3327-25.4425-.0454-.218.0946-.4314.3126-.4768.1825-.0379.3641.0588.4442.2176,5.9112,11.7539,10.9489,23.77,15.8643,35.9163,8.3564,19.9698,15.1605,40.9139,21.9339,61.4197,11.2112,32.95,22.787,65.786,33.8347,98.8.0707.2095-.0419.4365-.2514.5072-.1996.0673-.4163-.0343-.4972-.2251h0Z"/>
      <path class="cls-1" d="m571.8327,454.6556c-2.16-9.9857-8.1215-18.3624-13.071-27.1691l-14.1034-27.0689c-9.2872-18.0875-18.2278-36.3546-27.0033-54.6932-7.7923-16.095-19.1526-38.8433-25.9838-55.1217-7.9603-18.7261-15.7141-37.4775-22.4901-56.7021-.0735-.2098.0367-.4395.2464-.5132.1805-.0634.3768.011.4747.1662,10.7715,17.3234,20.1079,35.4306,29.0455,53.7246,13.1735,27.477,24.1058,55.9493,36.8173,83.6345,7.1216,16.1849,17.7041,39.1262,25.1717,55.4125,4.5248,9.022,10.1373,17.9971,11.6838,28.1915.0334.2183-.1166.4225-.335.4559-.2125.0325-.4114-.109-.4528-.317h0Z"/>
      <path class="cls-1" d="m536.9427,436.6779c-27.7788-43.2086-59.1265-97.3275-85.9718-141.3003-11.27-18.5518-22.0768-38.608-31.9491-57.9552-5.0069-9.839-9.8789-19.7532-14.37-29.8791-.09-.2029.0015-.4403.2044-.5303.1769-.0785.383-.0148.4918.1363,9.7104,13.4914,18.6159,27.4119,27.4144,41.4665,14.6768,23.1704,27.7866,47.8085,40.8648,71.8471,11.1767,20.1404,36.9316,67.4446,47.8301,86.9513,5.4251,9.6039,10.8149,19.2258,16.1768,28.8613.1074.193.038.4366-.1551.544-.1885.1051-.4257.0408-.5363-.1416h0Z"/>
      <path class="cls-1" d="m502.8552,429.845c-5.0976-8.2966-11.9158-15.3071-17.8929-23.0003-13.1265-17.2542-27.5074-37.5236-40.5974-54.7582-3.8846-5.1921-7.573-10.5194-11.059-15.9907-7.0009-10.9104-14.0127-21.7759-19.8284-33.6245-.1052-.2014-.0241-.452.1805-.5518.1572-.0772.3405-.0425.4599.0722,7.0774,6.8509,13.4386,14.2663,19.7015,21.818,6.2041,7.4938,11.8335,15.5466,17.0434,23.7488,5.9386,9.5861,14.7827,23.2324,21.022,32.8194,6.2437,9.5287,14.6071,23.437,21.2279,32.538,3.7893,5.2858,7.5746,10.68,10.4443,16.5451.0978.1983.0164.4384-.1819.5362-.1866.092-.4127.0212-.5199-.1522h0Z"/>
      <path class="cls-1" d="m478.1444,441.0188c-29.5425-34.0154-66.7784-75.975-97.0178-109.6547-13.0615-14.5417-25.2272-29.8685-36.8387-45.588-5.7964-7.9038-11.4523-15.9008-16.7041-24.1883-.1183-.1885-.0615-.4372.127-.5555.1596-.1002.3644-.0728.4946.0519,3.552,3.4017,6.9467,6.9268,10.3512,10.4414,3.3878,3.5288,6.7607,7.0673,10.0646,10.6609,13.2883,14.3064,26.306,28.8293,38.5395,44.0479,4.5547,5.6982,13.7933,17.1247,18.4068,22.7745,9.2858,11.2393,27.8809,34.0431,37.0194,45.4064,12.1772,15.2744,24.3552,30.5491,36.1781,46.0987.1338.1759.0996.427-.0763.5608-.1686.1282-.4071.1012-.5443-.056h0Z"/>
      <path class="cls-1" d="m462.6799,463.2427c-26.2104-23.5759-59.2919-55.8583-85.239-80.1117,0,0-9.605-8.8081-9.605-8.8081-6.223-5.7527-12.3567-12.4637-18.2232-18.5547-5.9236-6.2928-11.7918-12.6724-17.5361-19.1923-5.7438-6.5167-11.356-13.1862-16.5365-20.2295-.132-.1795-.0935-.432.086-.5641.1501-.1104.3521-.1008.4912.0101,6.8268,5.4472,13.4144,11.0813,19.9352,16.8018,6.5147,5.7232,12.9597,11.5328,19.239,17.539,5.47,5.2296,10.8011,10.689,15.8831,16.2824.8856.8375,18.9134,19.6554,20.2526,21.0373,16.1214,16.6178,37.9263,39.6161,53.8391,56.4338l17.9706,18.7818c.153.1596.1476.413-.012.5659-.1521.1457-.3906.1465-.545.0083h0Z"/>
      <path class="cls-1" d="m443.0256,481.2458c-6.6637-4.7421-16.9076-11.9049-23.4335-16.6651-3.877-2.8115-8.2088-5.1036-11.4933-8.6711-3.4164-3.626-6.4517-7.4922-8.4388-12.213-.1446-.3296.1949-.7085.5384-.5919,2.5405.7544,4.7827,1.8086,6.9455,2.9469,4.2531,2.3021,8.2543,4.9191,11.5765,8.4356,2.8085,3.0916,7.0995,7.288,10.133,10.24,4.9023,4.9997,10.2634,10.5625,14.7153,15.9312.2939.3372-.1711.8686-.5431.5874h0Z"/>
      <path class="cls-1" d="m443.9223,513.511c-11.6822-6.4342-22.0343-15.0884-32.5019-23.2781-6.3189-5.1457-14.741-5.5336-21.512-10.5203-4.8886-4.0304-8.6532-11.4034-15.3295-12.2286-.4147-.0551-.7747-.2217-1.0914-.4597-31.258-22.4027-64.2761-42.2142-94.7469-65.7314-10.2094-7.7811-20.3328-15.6963-30.0326-24.2103-.1671-.1466-.1837-.401-.037-.5681.126-.1436.3318-.1758.4932-.089,11.365,6.1104,22.3562,12.7476,33.2636,19.5156,32.8685,20.1257,63.2366,43.9214,94.0847,66.9491-.0002,0-1.0913-.4592-1.0913-.4592,4.0646.7343,7.5905,3.2461,10.2847,6.1336,2.5369,2.4984,4.176,5.5503,6.7878,7.8613,2.4185,1.9837,5.6019,3.3698,8.8338,4.7657,3.9882,1.7249,8.5821,3.5893,11.9622,6.7189,1.4045,1.2088,4.6244,4.0437,6.0315,5.2711,7.9864,6.9874,16.039,13.9356,25.0099,19.6418.1867.1183.2421.3655.1238.5522-.114.1798-.3488.2371-.5326.1354h0Z"/>
      <path class="cls-1" d="m439.6059,539.6224c-22.7497-11.8155-47.5721-25.0271-70.1707-37.3367-5.842-3.124-11.6963-6.2274-17.5775-9.285-11.7475-6.1706-22.9222-13.2987-33.7894-20.9142-5.4401-3.8117-10.8026-7.7569-15.9464-12.0789-.1718-.1441-.1943-.4002-.0502-.5719.1131-.1349.2963-.1772.4524-.1197,6.2969,2.3402,12.3749,5.0572,18.3754,7.9078,11.9698,5.7195,23.7255,11.83,34.9317,18.9258,5.5801,3.5689,11.187,7.0922,16.8063,10.5948,8.44,5.161,25.3973,15.6583,33.7779,20.9159,11.1915,7.0928,22.4419,14.0854,33.5865,21.267.1887.1183.245.3689.124.5562-.1124.1744-.3391.2315-.52.1389h0Z"/>
      <path class="cls-1" d="m424.5952,558.6752c-26.4406-10.1015-51.7963-22.8611-77.6462-34.3044-8.6661-3.849-17.4095-7.4782-26.2272-10.8572-5.7645-2.7491-11.3309-5.9006-16.7555-8.4933-20.1949-8.3014-40.6585-17.2949-60.0702-27.2031-8.3881-4.0865-17.1114-8.1174-25.3416-12.5585-11.1183-5.9388-22.068-12.0107-33.116-18.1039-.1947-.1068-.2659-.3513-.159-.546.0931-.1695.2914-.2451.4694-.1913,12.1097,3.6786,23.805,8.5277,35.4136,13.3089,5.7755,2.4609,11.5757,4.8257,17.3321,7.2096,23.2826,9.3088,45.3701,22.0772,68.2324,32.3086,5.474,2.8816,11.9906,6.7683,16.3345,9.0594,17.4589,7.3761,34.3665,15.8808,51.1595,24.5822,16.7429,8.6777,33.4605,17.355,50.6796,25.0496.2018.0899.2926.3264.2027.5283-.0867.1948-.3111.2857-.5081.2111h0Z"/>
      <path class="cls-1" d="m426.8871,585.1197c-45.1164-16.6177-90.8215-32.0054-136.5254-46.9637-35.5943-11.1392-71.2271-24.3932-104.7407-40.7774-.1985-.1-.2783-.342-.1783-.5405.086-.1709.2799-.2531.4581-.2091,5.227,1.2903,10.3822,2.7642,15.5396,4.2264,25.6901,7.4724,51.2211,15.4767,76.2612,24.9087,30.0043,11.4475,60.1698,22.4523,90.0912,34.1339,19.9084,7.8944,39.7749,15.9003,59.3929,24.4795.2025.0885.2948.3245.2063.527-.0852.1947-.3079.2872-.5049.2152h0Z"/>
      <path class="cls-1" d="m443.2769,613.3241c-56.6483-13.5887-125.3826-31.2465-182.1538-45.1225-23.9123-5.8508-48.7037-13.1285-72.1997-20.5326-11.9392-3.775-23.8388-7.6993-35.6263-12.0447-.2084-.076-.3156-.3066-.2396-.515.0675-.1849.2581-.2898.4454-.258,12.3775,2.1296,24.6429,4.6803,36.8686,7.3803,24.0566,5.3372,49.1519,11.4272,72.7906,18.3171,24.3084,7.1715,83.0982,23.8522,108.239,31.0317,24.0255,6.9952,48.0817,13.8784,72.082,20.9707.2121.0622.3336.2845.2714.4965-.0601.2052-.272.3251-.4776.2765h0Z"/>
      <path class="cls-1" d="m433.8101,632.8196c-33.2134-2.7036-66.1989-10.2857-99.0969-15.2014-31.7815-4.5923-67.6428-8.9618-99.1795-15.1277-21.6037-4.3997-44.0051-9.2567-65.1735-15.3388-.2135-.0616-.3365-.2845-.275-.4979.0538-.1863.2308-.3037.4169-.2895,11.1678.8491,22.258,2.1282,33.3202,3.5511,27.2206,3.4133,55.4993,8.1806,82.3982,13.6606,21.6085,4.2944,44.2874,7.6187,65.7993,12.1529,27.0479,5.7964,54.5119,12.4679,81.8795,16.2956.2189.031.3712.2334.3403.4523-.0298.2108-.2201.3598-.4295.3428h0Z"/>
      <path class="cls-1" d="m433.9659,654.2698c-61.9392-4.5741-123.8718-9.0641-185.8662-12.8277-24.4016-1.4797-49.9167-4.2299-74.174-7.4046-12.3286-1.6317-24.6409-3.4396-36.9071-5.7031-.2182-.0403-.3624-.2498-.3221-.468.0357-.1934.2049-.3286.3947-.3287,12.4727-.0201,24.9032.3711,37.3213.8939,24.4416,1.0411,50.0295,2.5672,74.3411,5.1177,37.0622,3.9486,74.1666,7.4469,111.2338,11.3691,24.7012,2.7279,49.4029,5.4444,74.0583,8.5554.2192.0277.3745.2278.3468.4471-.0267.212-.2159.3642-.4266.3489h0Z"/>
      <path class="cls-1" d="m451.9072,675.3905c-61.4764,1.5378-136.3866,2.2738-198.0663,3.5658-25.9801.5383-53.2445-.0739-79.2266-1.1439-13.2046-.5559-26.4092-1.2663-39.6141-2.4123-.221-.019-.3846-.2135-.3656-.4344.0169-.1974.1744-.3491.3652-.3656,13.2041-1.1469,26.4084-1.858,39.6127-2.4147,25.9896-1.0717,53.2422-1.6852,79.2272-1.1489,26.745.6349,91.2464,1.5293,118.8419,1.9564,26.4081.5378,52.8171.9595,79.2258,1.5976.2209.0053.3957.1887.3904.4097-.0052.214-.1789.3848-.3906.3903h0Z"/>
      <path class="cls-1" d="m448.5905,695.1972c-60.2928,6.8192-133.8615,13.9952-194.376,20.5871-25.4905,2.7707-52.3441,4.5058-77.9762,5.6745-13.0279.5819-26.0692,1.0099-39.1485,1.0039-.2218,0-.4015-.1799-.4014-.4017,0-.1978.1433-.3621.3316-.3953,12.8791-2.2781,25.7961-4.1222,38.7266-5.8124,25.452-3.3027,52.1859-6.2578,77.7741-7.9584,26.3438-1.6677,89.8227-6.3242,116.9846-8.2721,26.0047-1.7355,52.0001-3.5868,78.0148-5.2224.2205-.0143.4108.1529.4251.3734.0138.2136-.1444.3991-.3547.4234h0Z"/>
      <path class="cls-1" d="m450.9433,715.0868c-59.2722,11.197-118.5637,22.2338-177.6735,34.2585-16.3806,3.3388-36.8177,6.724-53.3845,9.5206-17.9138,2.8681-35.8672,5.5191-54.0038,6.7301-.2214.0147-.4128-.1529-.4275-.3744-.0129-.1955.1166-.3676.2995-.4153,11.7184-3.0623,23.4319-5.9162,35.1622-8.723,5.8569-1.4441,11.7408-2.7538,17.6126-4.146,27.2638-6.6462,61.2245-11.6638,89.1025-16.0178,47.6525-7.6908,95.3491-15.1595,143.1852-21.6225.2189-.0295.4204.1242.4498.3432.0285.2116-.1153.4071-.3225.4466h0Z"/>
      <path class="cls-1" d="m466.0839,731.5693c-16.41,5.7928-34.4637,11.9705-51.1084,17.271-4.2852,1.3629-8.5357,2.8588-12.8045,4.2995-8.5645,2.8795-17.4281,4.6041-26.3899,5.7629-4.5024.5444-9.0388.9382-13.6719.8811-.4008.0038-.5709-.5953-.1875-.7778,8.113-4.2238,16.5687-7.2723,25.186-10.0795,8.5243-2.8419,17.4352-4.1936,26.1593-6.2539,6.5241-1.5602,19.6989-4.6315,26.2421-6.1128,8.785-1.9215,17.5405-3.96,26.3595-5.7609.2169-.0444.4288.0956.4731.3126.0404.1981-.0728.3919-.2578.4578h0Z"/>
      <path class="cls-1" d="m446.8428,758.6429c-57.0673,22.7099-115.7358,45.0044-172.8906,67.7356-23.0106,9.1569-46.9608,16.0504-70.657,23.0515.0001.0002-35.5812,10.6325-35.5812,10.6325-.2125.0635-.4362-.0573-.4997-.2698-.0565-.1888.034-.3872.2037-.4734,16.6283-8.4542,33.9462-15.402,51.4177-21.8651,16.9516-6.0859,35.4499-12.7306,52.4026-18.5162,34.8504-11.9602,70.3481-24.823,105.1027-36.8676,23.4102-8.0545,46.7803-16.2179,70.2252-24.1782.2093-.071.4365.0411.5076.2503.0687.2023-.035.422-.231.5004h0Z"/>
      <path class="cls-1" d="m446.3406,781.881c-44.269,21.1169-88.5423,42.587-132.446,64.4816-33.8311,17.4041-69.064,33.4019-104.8836,46.243-.2098.0731-.4391-.0376-.5123-.2473-.0638-.1826.0123-.3802.1714-.4766,9.3817-5.6903,18.9419-10.9955,28.5632-16.1713,18.9436-10.1687,39.0194-20.399,58.6546-29.1218,29.025-12.8662,60.8616-27.2733,89.7866-39.9303,20.057-8.6428,40.1196-17.268,60.3427-25.5089.2046-.0835.4382.0148.5216.2195.0802.197-.0089.4213-.1982.5121h0Z"/>
      <path class="cls-1" d="m431.5835,815.7183c-31.0953,16.5674-63.2064,38.1855-93.4023,56.5502-15.4572,9.6196-30.6119,19.7522-46.5477,28.5793-15.964,8.8408-32.1695,17.2829-48.9357,24.5823-.2045.0876-.4413-.007-.529-.2115-.0752-.1743-.0167-.3729.1288-.4814,7.2776-5.6001,14.7672-10.8194,22.3323-15.904,22.5594-15.471,46.3577-28.9125,70.3046-42.0793,11.8172-6.738,35.7084-20.2066,47.5937-26.8249,15.9616-8.7999,32.0351-17.5151,48.7054-24.9301.2019-.0898.4385.0011.5283.203.0857.1927.0044.4182-.1784.5164h0Z"/>
      <path class="cls-1" d="m434.8754,842.0326c-41.4245,29.858-82.9476,62.1778-123.7553,92.9611-16.4374,12.4823-34.4431,23.0744-52.1578,33.4917-8.8126,5.2753-17.4849,10.7171-26.0434,16.5491-.1832.1257-.4337.0792-.5594-.104-.1086-.1581-.0876-.3675.0376-.5024,7.1024-7.6073,15.1273-14.345,23.4141-20.6042,16.6629-12.3578,33.6456-23.6681,50.7401-35.2998,24.7677-16.4388,51.6395-36.2423,76.2333-52.9481,17.0803-11.6067,34.2136-23.1355,51.6412-34.2052.1866-.1185.4339-.0634.5524.1231.114.1792.0664.4153-.1028.5387h0Z"/>
      <path class="cls-1" d="m456.6544,858.2889c-12.4149,13.1913-26.7071,25.6236-40.4874,37.4308-6.9177,5.9404-13.3756,12.4815-20.6757,17.9339-.8101.6115-3.1895,2.4234-4.0079,3.0064-5.7808,4.8921-11.9631,8.937-18.3517,13.0334-.1915.123-.4464.0675-.5695-.124-.0849-.1322-.0834-.297-.0121-.4254,2.3366-4.1362,5.3074-7.817,8.2779-11.3336.9309-1.0919,4.8084-5.5585,5.6471-6.5146,4.4717-4.527,9.3371-8.8418,14.4838-12.5355,7.617-5.365,25.6533-18.6015,33.4008-24.2832,7.4048-5.3822,14.6117-11.006,21.7489-16.773.171-.1436.4288-.1195.5691.0551.1285.159.1153.3864-.0233.5297h0Z"/>
      <path class="cls-1" d="m468.6889,881.8394c-25.243,26.8853-53.1385,56.1817-78.8459,82.8198-19.5821,20.8411-39.3064,41.5482-60.893,60.3564-7.1286,6.3438-14.3669,12.578-21.9133,18.5043-.1749.1375-.4282.1071-.5657-.0678-.1171-.149-.1121-.355,0-.4978,5.9246-7.5471,12.1574-14.7862,18.4995-21.9162,18.8049-21.5898,39.5087-41.3178,60.3468-60.9035,10.2336-9.8918,30.9483-29.7617,41.2616-39.5721,13.8519-13.0926,27.6217-26.2673,41.5445-39.2889.1614-.1509.4147-.1425.5657.019.1445.1545.1419.3942-.0001.5468h0Z"/>
      <path class="cls-1" d="m480.7744,903.2822c-5.2433,8.6538-13.0834,21.9193-18.5065,30.3129-3.9183,6.361-7.7471,12.94-13.5459,17.8262-3.4539,3.058-7.1767,5.8218-11.4138,7.7234-.3349.1558-.7223-.214-.5694-.5549.6012-1.4848,1.3349-2.819,2.0517-4.1541,3.5736-6.4161,7.4938-12.6191,12.4532-18.0497,3.5424-3.6783,8.195-9.3793,11.451-13.4046,5.4995-6.623,11.5407-13.9607,17.444-20.1849.3029-.3323.8973.0813.6357.4857h0Z"/>
      <path class="cls-1" d="m500.801,923.371c-23.4367,34.7934-47.228,69.3628-67.653,106.0279-7.8475,13.0016-17.6003,24.8474-26.3909,36.9647-4.5018,6.796-9.1625,13.6098-14.2002,20.0346-5.7355,7.4336-11.7693,14.6007-18.182,21.4644-.1519.1626-.407.1713-.5696.0193-.1379-.1289-.1649-.3322-.0772-.4901,4.5585-8.2122,9.4173-16.182,14.1778-24.1605,4.1173-6.8186,8.284-14.2183,12.3041-21.1056,8.0906-13.0521,18.321-24.1733,26.9871-36.587,2.2843-3.2881,5.3079-8.2398,7.4806-11.6791,9.9335-15.8681,20.6355-31.2277,31.6918-46.311,11.1084-15.0202,22.4141-29.8517,33.7809-44.643.1346-.1753.3859-.2082.5612-.0735.1676.1287.2042.3653.0894.5389h0Z"/>
      <path class="cls-1" d="m531.1548,926.5233c-17.9938,35.5306-39.8173,73.3809-59.3729,108.2371-14.8457,27.0573-29.963,53.9637-47.1231,79.6448-5.6472,8.6066-11.4294,17.1372-17.5917,25.4546-.1306.1798-.3822.2196-.5619.089-.155-.1127-.2043-.3189-.1315-.4878,8.4201-18.8416,17.9771-37.1082,27.9372-55.1452,14.5449-25.9002,32.7288-53.4654,48.0403-79.1164,12.6724-20.6368,28.0445-45.0895,40.2724-65.7676,2.6426-4.4098,5.24-8.8458,7.8277-13.2895.1111-.191.3561-.2557.5471-.1446.1835.1068.2498.3383.1564.5256h0Z"/>
      <path class="cls-1" d="m561.9306,918.835c-4.4452,14.6718-10.4607,29.5522-16.5212,43.6734-3.0592,7.1135-5.5055,14.5214-9.331,21.2768-3.7927,6.8258-7.8246,13.5626-12.7735,19.6655-.2411.3119-.8003.0944-.7373-.3104.9613-7.9207,3.3953-15.4187,6.2735-22.7642,2.8016-7.2844,7.1211-13.8199,10.805-20.6504l5.502-10.234c5.5584-10.2153,10.9728-20.4609,16.0373-30.9477.0973-.1992.3376-.2818.5368-.1845.179.0874.2637.2906.2084.4755h0Z"/>
      <path class="cls-1" d="m592.7668,904.7186c-3.7082,11.5439-8.9372,24.1484-13.4045,35.5009-11.5179,36.1043-25.4845,71.5346-36.998,107.5886-4.3467,13.9444-10.3646,33.967-14.6782,48.123-2.2074,4.5659-4.882,8.9356-7.1186,13.5204-4.2388,8.3667-8.4472,17.6774-12.0714,26.3587-1.8729,4.4822-3.6674,9.0094-5.4829,13.555-.0824.2064-.3164.307-.5228.2247-.1788-.0713-.278-.2569-.2479-.4393,3.3176-19.4137,9.648-38.3327,18.3879-55.977,2.2979-12.1482,9.2551-33.1697,14.7924-47.7577,11.7983-31.6791,24.7302-62.8223,36.8886-94.3195l4.5154-11.8527,5.2247-11.575c3.4726-7.6817,6.9292-15.3572,9.9613-23.2176.0795-.2062.3111-.3089.5173-.2294.1991.0767.3013.2964.2367.4969h0Z"/>
      <path class="cls-1" d="m609.9691,915.9186c-15.0432,58.6223-29.2474,117.4352-42.9851,176.3774-8.4094,35.185-18.7363,70.5036-31.3606,104.4111-.0801.2071-.3127.3102-.5198.2304-.1816-.0701-.2829-.2599-.2512-.4448,2.1118-11.9543,4.6239-23.807,7.2182-35.6512,6.3267-29.3603,13.7748-59.1082,22.1553-87.9967,8.0373-28.9928,16.0638-58.5948,24.2438-87.509,6.7131-23.2716,13.4716-46.5313,20.7302-69.6368.0662-.2108.2908-.328.5016-.2618.2037.064.3198.2769.2676.4814h0Z"/>
      <path class="cls-1" d="m632.8867,917.3247c-8.0363,51.2523-17.6085,115.1483-25.1666,166.7193-3.1951,21.9017-7.8224,44.6825-12.8768,66.2469-2.6133,10.969-5.3956,21.8906-8.6647,32.6908-.0651.2124-.29.3318-.5024.2667-.1843-.0564-.2983-.2358-.2827-.4203.4709-5.6331,1.1355-11.2252,1.787-16.8178.6696-5.5896,1.3567-11.1739,2.1293-16.7408,3.597-27.6546,8.2432-55.7417,13.8367-83.1044,2.0955-10.8394,13.2948-70.7401,15.57-82.86,4.3328-22.0683,8.6462-44.1412,13.3838-66.1266.0465-.2161.2594-.3535.4754-.3069.2082.0449.3432.2453.311.4531h0Z"/>
      <path class="cls-1" d="m654.6941,909.1135c-1.9826,50.8175-5.3988,101.5764-9.0344,152.2985-2.3922,38.0447-5.0698,76.1734-11.1842,113.8819-1.8701,12.5785-3.855,25.1364-6.1411,37.6871-.0396.2182-.2487.3631-.4669.3234-.194-.0352-.33-.2047-.3299-.3952.5465-50.7959,6.3592-101.5983,11.7462-152.0529,3.8092-36.5544,7.6868-77.0338,11.2011-113.8172,0,0,3.4108-37.9762,3.4108-37.9762.0195-.2201.2137-.3828.4338-.3633.2129.0188.372.2027.3646.4139h0Z"/>
      <path class="cls-1" d="m675.4001,898.8414c1.5359,61.3312,2.2696,136.0649,3.5598,197.599.5375,25.9189-.0754,53.1191-1.1463,79.0398-.5563,13.1732-1.267,26.3465-2.4135,39.5198-.0192.2209-.2139.3844-.4348.3652-.1973-.0172-.3488-.1744-.3652-.3652-1.1464-13.1733-1.8572-26.3466-2.4135-39.5198-1.0709-25.928-1.6835-53.1162-1.1465-79.0397.6357-26.6815,1.532-91.0302,1.96-118.5603.5386-26.3457.9611-52.6923,1.6-79.0388.0054-.2209.1888-.3957.4097-.3903.2141.0052.3848.1786.3903.3903h0Z"/>
      <path class="cls-1" d="m696.7099,917.3734c7.6923,58.5667,12.8616,117.4245,18.9919,176.1637,2.4375,23.4993,3.7882,47.071,4.7587,70.6755.2615,5.9008.4353,11.8103.5915,17.7225.128,5.9145.2684,11.8292.2123,17.7642-.0004.222-.1806.4016-.4025.4012-.1946-.0004-.3572-.1421-.3939-.3259-2.2441-11.6498-4.022-23.351-5.6129-35.0702-3.0887-23.0625-5.7094-47.317-7.0472-70.5281-1.9867-35.3709-4.3404-70.7195-6.7989-106.0559-1.5259-23.5658-3.2981-47.1113-5.0948-70.6646-.0168-.2204.1482-.4126.3686-.4294.2127-.0163.3994.1381.4272.347h0Z"/>
      <path class="cls-1" d="m717.9112,916.1505c.6214,3.2428.668,6.5325.7841,9.8068,1.9718,8.4745,5.5044,18.0415,7.6314,27.2391,0,0,5.4965,27.8584,5.4965,27.8584,5.379,26.7619,11.5005,56.4951,17.2285,83.3602,4.3472,21.4712,7.2848,43.2386,9.0724,65.0752.6539,6.4182,3.0731,12.9477,1.6801,19.4766-.0439.2179-.2562.359-.4741.3151-.1861-.0375-.3162-.2013-.323-.3831-.1753-6.5501-3.6594-12.3779-5.1706-18.7298-4.7247-21.343-9.2203-42.7277-12.7255-64.3077-2.4908-16.2121-6.3356-39.5957-9.0968-56.0103-3.0873-18.6397-5.9298-37.4198-8.5443-56.1087-1.5832-9.1757-4.605-18.2759-6.159-27.6927.0554-3.2552.238-6.5438-.1883-9.7656-.0303-.2188.1226-.4208.3415-.4511.2105-.0291.4055.1123.4471.3177h0Z"/>
      <path class="cls-1" d="m739.1868,912.1606c19.7245,70.8753,41.2987,141.2787,59.5041,212.5773,2.865,11.9507,6.0408,23.6471,9.1224,35.5421,3.0734,11.8891,5.916,23.9701,7.3405,36.2375.0256.2204-.1323.4198-.3527.4454-.195.0226-.3739-.0997-.4301-.2806-3.659-11.7388-7.8062-23.2022-11.9375-34.7527-2.1012-5.7627-4.0772-11.5797-6.0461-17.4299-5.6671-17.5835-10.539-35.3551-14.7364-53.3192-8.1844-35.8892-16.9263-71.5657-26.1023-107.2255-5.9144-23.8123-11.9003-47.6241-17.1387-71.6036-.0472-.2159.0896-.4291.3055-.4763.2088-.0456.4153.0819.4713.2855h0Z"/>
      <path class="cls-1" d="m763.1951,917.4491c16.8105,42.2564,35.0829,88.7113,51.1794,131.4396,8.2999,21.9833,17.1592,43.7623,24.5901,66.0644,7.507,22.2669,15.0112,44.5124,21.1002,67.3384.0606.2153-.0668.4395-.2831.4969-.1888.0504-.3821-.0427-.4645-.2122-20.6482-42.4445-36.359-86.7196-50.9626-131.5165-14.6783-43.2711-31.3346-90.1759-45.9063-133.324-.0773-.2106.0343-.4455.2473-.5169.202-.0683.421.0349.4995.2303h0Z"/>
      <path class="cls-1" d="m793.3891,926.8353c15.1557,31.0124,37.5116,75.9622,53.032,107.395,13.572,26.7197,26.9468,53.5555,37.6233,81.6006,3.6457,9.3145,7.1184,18.7057,10.1604,28.2806.0673.2119-.05.4382-.2618.5056-.1809.0574-.3743-.023-.4683-.1786-2.601-4.3022-5.019-8.6839-7.4489-13.0586-2.4035-4.3871-4.7915-8.7795-7.0978-13.2081-11.6433-21.8667-22.5344-44.6901-32.233-67.5237-8.6992-19.6707-21.7913-48.6297-30.4466-68.4054-7.9575-18.3191-15.9483-36.6234-23.5883-55.078-.0845-.2042.0124-.4383.2167-.5228.1958-.0811.4198.006.5123.1934h0Z"/>
      <path class="cls-1" d="m821.5132,928.4893c8.0727,11.4273,16.6939,24.1225,24.3773,35.8794,1.9786,3.0238,4.0849,5.9729,6.1505,8.947,4.143,5.9712,7.2948,12.4957,10.0121,19.2357,1.3354,3.3982,2.5552,6.8623,3.3926,10.5442.0955.3738-.399.6843-.6861.4059-8.008-7.5671-14.5473-16.4254-19.5486-26.1756-2.6956-5.6715-6.8842-13.6665-9.8542-19.2968-4.7753-9.3621-9.9963-19.6946-14.5284-29.1261-.1004-.2-.0173-.447.1861-.5427.1784-.0848.3878-.0263.4987.129h0Z"/>
      <path class="cls-1" d="m840.7171,911.7568c23.4355,31.108,51.481,69.744,74.8621,101.0704,15.3951,19.904,29.9206,40.3749,43.5277,61.5695.0002-.0002.18.2761.18.2761.1307.2007.2163.427.257.6487.3077,1.7185.9636,3.4509,1.8738,5.171,2.9456,5.4226,7.6178,10.353,9.1784,16.5313.0553.2156-.0747.4352-.2904.4904-.1819.0466-.3677-.0409-.4543-.1981-4.1421-7.6382-12.7132-12.057-15.3953-20.7226l.4367.9246c-10.8023-12.8827-21.2315-26.0614-30.8885-39.7895-18.6206-27.2823-37.9963-55.9993-56.2446-83.4971-9.2332-14.0056-18.5234-27.9685-27.6972-42.0149-.1209-.1851-.0688-.4331.1162-.5539.1771-.1157.4126-.0719.5384.0941h0Z"/>
      <path class="cls-1" d="m866.9289,902.4023c20.8942,23.4601,50.8957,57.8435,71.9141,81.8379,18.2467,20.2473,36.3894,40.5862,52.3817,62.7063,5.416,7.3102,10.7119,14.718,15.6689,22.3997.1206.1869.0668.4362-.1201.5569-.1592.1032-.3649.0787-.4961-.0466-6.7219-6.218-13.1049-12.7099-19.3679-19.2992-18.9947-19.5784-36.0776-40.8085-52.9615-62.1945-8.5886-10.5016-25.6852-31.8608-34.0485-42.5447-11.1957-14.3101-22.4782-28.5431-33.59-42.9095-.1352-.1748-.1031-.4261.0717-.5613.169-.1309.4103-.1046.5477.0551h0Z"/>
    </g>
  </g>
  <g id="_新年快樂02" data-name="新年快樂02">
    <g>
      <path class="cls-2" d="m856.6629,469.1707v18c0,9.94-8.0599,18-18,18h-67.5399c-9.9401,0-18,8.05-18,18v-18c0-9.95,8.0599-18,18-18h67.5399c9.9401,0,18-8.06,18-18Z"/>
      <path class="cls-4" d="m753.1217,456.5041c-4.9701,0-9.4701,2.01-12.7301,5.27-3.2599,3.2599-5.2699,7.7599-5.2699,12.73v30.6599c0,4.9701-2.0101,9.4701-5.2701,12.7301-3.26,3.2599-7.76,5.2699-12.7299,5.2699h-18c4.9699,0,9.4699-2.01,12.7299-5.2699,3.26-3.26,5.2701-7.76,5.2701-12.7301v-30.6599c0-4.9701,2.01-9.4701,5.2699-12.73,3.26-3.26,7.76-5.27,12.7301-5.27h18Z"/>
      <path class="cls-4" d="m839.7916,523.164v18c0,4.9701-2.02,9.4701-5.27,12.7301-3.26,3.2599-7.76,5.2699-12.73,5.2699h-20v-18h20c4.97,0,9.47-2.01,12.73-5.2699,3.25-3.26,5.27-7.76,5.27-12.7301Z"/>
      <rect class="cls-4" x="783.7916" y="541.164" width="18" height="18"/>
      <path class="cls-2" d="m868.4583,579.516h-164c-9.9412,0-18,8.0587-18,18v18c0-9.9411,8.059-18,18-18h164c9.941,0,18-8.0588,18-18v-18c0,9.9411-8.059,18-18,18Z"/>
      <path class="cls-2" d="m801.7917,638.4992v-142.3352h-18v142.3352c0,9.9411,8.0588,18,18,18h18c-9.9412,0-18-8.0589-18-18Z"/>
      <path class="cls-4" d="m753.1217,541.164c-4.9701,0-9.4701,2.0101-12.7301,5.2701-3.2599,3.26-5.2699,7.76-5.2699,12.7299v2c0,4.9701-4.0301,9-9,9s-9-4.0299-9-9v-2c0-4.9699,2.01-9.4699,5.2699-12.7299,3.26-3.26,7.76-5.2701,12.7301-5.2701h18Z"/>
      <path class="cls-4" d="m783.7916,541.164v18h-20.6699v-.06c-.3301.0401-.6601.06-1,.06-4.9701,0-9-4.0299-9-9s4.0299-9,9-9c.3399,0,.6699.0201,1,.06v-.06h20.6699Z"/>
    </g>
    <g>
      <path class="cls-2" d="m815.4583,893.5h-18c-4.97,0-9.47-2.01-12.73-5.27s-5.27-7.76-5.27-12.73v-66.95h18v66.95c0,4.97,2.01,9.47,5.27,12.73s7.76,5.27,12.73,5.27Z"/>
      <path class="cls-2" d="m888.4583,798.51v18c0,4.97-2.01,9.47-5.27,12.73-3.26,3.25-7.76,5.27-12.73,5.27h-164c-4.97,0-9.47,2.02-12.73,5.27-3.26,3.26-5.27,7.76-5.27,12.73v-18c0-4.97,2.01-9.47,5.27-12.73,3.26-3.25,7.76-5.27,12.73-5.27h164c4.97,0,9.47-2.02,12.73-5.27,3.26-3.26,5.27-7.76,5.27-12.73Z"/>
      <path class="cls-2" d="m730.7983,693.5v18c0,4.97-2.01,9.47-5.27,12.73s-7.76,5.27-12.73,5.27h-2c-4.81,0-8.75-3.78-8.99-8.54-.01-.15-.01-.31-.01-.46,0-4.98,4.03-9,9-9h2c4.97,0,9.47-2.01,12.73-5.27s5.27-7.76,5.27-12.73Z"/>
      <path class="cls-2" d="m730.7983,746.05v18c0,4.97-2.01,9.47-5.27,12.73s-7.76,5.27-12.73,5.27h-2c-4.81,0-8.75-3.78-8.99-8.54-.01-.15-.01-.31-.01-.46,0-4.98,4.03-9,9-9h2c4.97,0,9.47-2.01,12.73-5.27s5.27-7.76,5.27-12.73Z"/>
      <path class="cls-2" d="m857.4616,746.055v18c0,4.97-2.0101,9.47-5.27,12.73-3.26,3.26-7.76,5.27-12.73,5.27h-2c-4.81,0-8.75-3.78-8.99-8.54-.01-.15-.01-.31-.01-.46,0-4.98,4.03-9,9-9h2c4.97,0,9.47-2.01,12.73-5.27,3.2599-3.26,5.27-7.76,5.27-12.73Z"/>
      <path class="cls-2" d="m857.4616,693.4952v18c0,4.97-2.0101,9.47-5.27,12.73-3.26,3.26-7.76,5.27-12.73,5.27h-2c-4.81,0-8.75-3.78-8.99-8.54-.01-.15-.01-.31-.01-.46,0-4.98,4.03-9,9-9h2c4.97,0,9.47-2.01,12.73-5.27,3.2599-3.26,5.27-7.76,5.27-12.73Z"/>
      <path class="cls-4" d="m802.9583,693.5v18c0,4.97-2.01,9.47-5.27,12.73s-7.76,5.27-12.73,5.27h-2c-4.97,0-9-4.03-9-9,0-4.98,4.03-9,9-9h2c4.97,0,9.47-2.01,12.73-5.27s5.27-7.76,5.27-12.73Z"/>
      <path class="cls-4" d="m776.9583,750.55v18c0,4.97,2.01,9.47,5.27,12.73s7.76,5.27,12.73,5.27h2c4.97,0,9-4.03,9-9,0-4.98-4.03-9-9-9h-2c-4.97,0-9.47-2.01-12.73-5.27s-5.27-7.76-5.27-12.73Z"/>
      <path class="cls-2" d="m741.7983,720.5v18c0,4.97-2.01,9.47-5.27,12.73s-7.76,5.27-12.73,5.27h-4c-4.97,0-9.47-2.01-12.73-5.27s-5.27-7.76-5.27-12.73v-18c0,.15,0,.31.01.46.12,4.79,2.1,9.11,5.26,12.27,3.26,3.26,7.76,5.27,12.73,5.27h4c4.97,0,9.47-2.01,12.73-5.27s5.27-7.76,5.27-12.73Z"/>
      <path class="cls-2" d="m741.7983,773.06v18c0,4.97-2.01,9.47-5.27,12.73s-7.76,5.27-12.73,5.27h-4c-4.97,0-9.47-2.01-12.73-5.27s-5.27-7.76-5.27-12.73v-18c0,.15,0,.31.01.46.12,4.79,2.1,9.11,5.26,12.27,3.26,3.26,7.76,5.27,12.73,5.27h4c4.97,0,9.47-2.01,12.73-5.27s5.27-7.76,5.27-12.73Z"/>
      <path class="cls-2" d="m868.4616,773.0551v18c0,4.97-2.01,9.47-5.27,12.73s-7.76,5.27-12.73,5.27h-4c-4.97,0-9.47-2.01-12.73-5.27s-5.27-7.76-5.27-12.73v-18c0,.15,0,.31.01.46.12,4.79,2.1,9.11,5.26,12.27,3.26,3.26,7.76,5.27,12.73,5.27h4c4.97,0,9.47-2.01,12.73-5.27s5.27-7.76,5.27-12.73Z"/>
      <path class="cls-2" d="m868.4616,720.4952v18c0,4.97-2.01,9.47-5.2699,12.73-3.2601,3.26-7.7601,5.27-12.7301,5.27h-4c-4.97,0-9.47-2.01-12.73-5.27s-5.27-7.76-5.27-12.73v-18c0,.15,0,.31.01.46.12,4.79,2.1001,9.11,5.26,12.27,3.26,3.26,7.76,5.27,12.73,5.27h4c4.97,0,9.47-2.01,12.7301-5.27,3.2599-3.26,5.2699-7.76,5.2699-12.73Z"/>
      <g>
        <path class="cls-2" d="m815.4583,757.55v42c0,4.98-4.03,9-9,9s-9-4.02-9-9v-42c0-4.97-2.01-9.47-5.27-12.73-3.26-3.25-7.76-5.27-12.73-5.27h18c4.97,0,9.47,2.02,12.73,5.27,3.26,3.26,5.27,7.76,5.27,12.73Z"/>
        <path class="cls-2" d="m797.4583,808.55h-18c-4.97,0-9.47-2.01-12.73-5.27-3.26-3.25-5.27-7.75-5.27-12.73v-42c0-4.97,4.03-9,9-9s9,4.03,9,9v42c0,4.98,2.01,9.48,5.27,12.73,3.26,3.26,7.76,5.27,12.73,5.27Z"/>
      </g>
      <path class="cls-4" d="m881.7083,865.5l-12.73,12.72c-3.51,3.51-8.12,5.27-12.73,5.27s-9.22-1.76-12.73-5.27l-1.41-1.41-17.68-17.68c-3.51-3.51-3.51-9.21,0-12.73,3.52-3.51,9.22-3.51,12.73,0l17.68,17.68,1.41,1.42.22.21c3.49,3.37,7.99,5.06,12.51,5.06,4.61,0,9.21-1.76,12.73-5.27Z"/>
      <path class="cls-4" d="m752.4883,859.13l-17.67,17.68-1.42,1.41c-3.51,3.51-8.12,5.27-12.73,5.27-4.6,0-9.2-1.76-12.72-5.27l-12.73-12.72c3.51,3.51,8.12,5.27,12.73,5.27,4.6,0,9.2-1.76,12.72-5.27l1.42-1.42,17.68-17.68c3.51-3.51,9.21-3.51,12.72,0,3.52,3.52,3.52,9.22,0,12.73Z"/>
      <path class="cls-4" d="m755.1283,789.15c0,4.61-1.76,9.22-5.27,12.73l-12.73,12.73c3.52-3.52,5.27-8.12,5.27-12.72,0-4.61-1.75-9.22-5.27-12.73l-1.41-1.42c-3.52-3.51-3.52-9.21,0-12.73,3.51-3.51,9.21-3.51,12.72,0l1.42,1.42c3.51,3.52,5.27,8.12,5.27,12.72Z"/>
      <path class="cls-4" d="m881.7883,789.15c0,4.61-1.76,9.22-5.27,12.73l-12.72,12.73c3.51-3.52,5.27-8.12,5.27-12.72,0-4.61-1.76-9.22-5.27-12.73l-1.42-1.42c-3.51-3.51-3.51-9.21,0-12.73,3.52-3.51,9.22-3.51,12.73,0l1.41,1.42c3.51,3.52,5.27,8.12,5.27,12.72Z"/>
    </g>
    <g>
      <path class="cls-4" d="m507.4917,524.7633l-1.47.85c-7.31,4.22-9.82,13.57-5.6,20.89l-7.64-13.25-.14-.25c-4.15-7.17-1.69-16.34,5.49-20.49l1.72-.99c3.65-2.11,8.33-.86,10.44,2.8,2.11,3.65.86,8.33-2.8,10.44Z"/>
      <path class="cls-4" d="m529.2817,544.4833l-1.72.99c-3.66,2.11-8.33.86-10.44-2.8-2.11-3.65-.86-8.33,2.8-10.44l1.47-.85c7.31-4.22,9.81-13.57,5.59-20.88l7.65,13.24.14.25c4.14,7.17,1.69,16.34-5.49,20.49Z"/>
      <path class="cls-2" d="m648.2017,456.5033v18c0,9.94-8.06,18-18,18h-37.33c-9.94,0-18,8.05-18,18v-18c0-9.95,8.06-18,18-18h37.33c9.94,0,18-8.06,18-18Z"/>
      <path class="cls-2" d="m549.5765,510.4985c-.0001-9.9412-8.0589-18-18-18h-35.8715c-9.9411,0-18-8.0589-18-18v18c0,9.9411,8.0589,18,18,18h35.8715c9.9411,0,17.9999,8.0589,18,18v-18s0,0,0,0Z"/>
      <path class="cls-2" d="m504.7017,582.5033v18h-23.16c-9.94,0-18-8.06-18-18v-18c0,9.94,8.06,18,18,18h23.16Z"/>
      <path class="cls-2" d="m564.2017,600.5033v18c0-9.95-8.06-18-18-18h-23.5v-18h23.5c9.94,0,18,8.05,18,18Z"/>
      <path class="cls-2" d="m661.5417,656.5033h-18c-9.94,0-18-8.06-18-18v-81.8c0-9.94-8.06-18-18-18h18c9.94,0,18,8.06,18,18v81.8c0,9.94,8.06,18,18,18Z"/>
      <g>
        <path class="cls-2" d="m549.5717,564.5033v18c0-9.95-8.05-18-18-18h-35.87c-9.94,0-18-8.06-18-18v-18c0,9.94,8.06,18,18,18h35.87c9.95,0,18,8.05,18,18Z"/>
        <path class="cls-2" d="m540.7017,656.5033h-18c-9.94,0-18-8.06-18-18v-74h18v74c0,9.94,8.06,18,18,18Z"/>
      </g>
      <path class="cls-2" d="m592.8717,519.4984c0-4.9706-4.0295-9-9-9s-9,4.0294-9,9h0v99.0001c0,9.9411-8.0589,18-18,18h18c9.9411,0,18-8.0589,18-18v-99.0001h0Z"/>
      <path class="cls-4" d="m528.2031,474.5v18c0-9.94-8.0601-18-18-18h-2c-4.97,0-9-4.03-9-9s4.03-9,9-9h2c9.9399,0,18,8.06,18,18Z"/>
      <path class="cls-4" d="m497.5417,616.5033v12c0,4.97-2.01,9.47-5.27,12.73s-7.76,5.27-12.73,5.27h-18c4.97,0,9.47-2.01,12.73-5.27s5.27-7.76,5.27-12.73v-12c0-4.98,4.03-9,9-9s9,4.02,9,9Z"/>
      <path class="cls-4" d="m564.2017,636.5033h-18c-4.97,0-9.47-2.01-12.73-5.27s-5.27-7.76-5.27-12.73v-2c0-4.98,4.03-9,9-9s9,4.02,9,9v2c0,4.97,2.01,9.47,5.27,12.73s7.76,5.27,12.73,5.27Z"/>
      <path class="cls-4" d="m661.5417,502.7033v18c0,4.97-2.01,9.47-5.27,12.73s-7.76,5.27-12.73,5.27h-41.67c-4.97,0-9-4.03-9-9s4.03-9,9-9h41.67c4.97,0,9.47-2.01,12.73-5.27s5.27-7.76,5.27-12.73Z"/>
    </g>
    <g>
      <g>
        <path class="cls-2" d="m599.0817,811.83c-1.05,5.77-2.41,11.85-4.15,18-5.08,17.97-13.42,36.56-27.13,49.98l-1.41,1.41c-3.52,3.51-8.12,5.27-12.73,5.27s-9.21-1.76-12.73-5.27l-12.73-12.72c3.51,3.51,8.12,5.27,12.73,5.27,4.52,0,9.03-1.69,12.51-5.06l.22-.21,1.41-1.42c9.06-9.72,15.59-22.89,20.2-37.25,1.87-5.85,3.44-11.9,4.75-18,2.9-13.56,4.51-27.35,5.37-39.67h17.4v.01c.01.51.28,17.9-3.71,39.66Z"/>
        <path class="cls-2" d="m603.8717,727.16v2s.62,10.08.07,25h-17.73c.32-14.96-.34-25-.34-25v-2c0-4.97,2.02-9.47,5.27-12.73,3.26-3.26,7.76-5.27,12.73-5.27h18c-4.97,0-9.47,2.01-12.73,5.27-3.25,3.26-5.27,7.76-5.27,12.73Z"/>
      </g>
      <g>
        <path class="cls-4" d="m506.5417,763.16v2.41c-1.37.79-2.62,1.75-3.73,2.86-3.26,3.26-5.27,7.76-5.27,12.73v30.67c0,4.97-2.01,9.47-5.27,12.73-3.26,3.25-7.76,5.27-12.73,5.27h-18c4.97,0,9.47-2.02,12.73-5.27,3.26-3.26,5.27-7.76,5.27-12.73v-30.67c0-4.97,2.01-9.47,5.27-12.73s7.76-5.27,12.73-5.27h9Z"/>
        <path class="cls-4" d="m515.5417,763.16c-3.28,0-6.35.87-9,2.41v-2.41h9Z"/>
      </g>
      <path class="cls-2" d="m643.205,811.8284h-2s-93.3334,0-93.3334,0h0s-1.9998,0-1.9998,0c-9.9412,0-18-8.0589-18-18v18c0,9.9411,8.0588,18,18,18h2s93.3332,0,93.3332,0h0s2,0,2,0c9.9412,0,18,8.0589,18,18v-18c0-9.9411-8.0588-18-18-18Z"/>
      <path class="cls-4" d="m617.0917,763.16c0,4.97-4.03,9-9,9h-33.55c-4.97,0-9.47-2.01-12.73-5.27s-5.27-7.76-5.27-12.73v-18c0,4.97,2.01,9.47,5.27,12.73s7.76,5.27,12.73,5.27h33.55c4.97,0,9,4.03,9,9Z"/>
      <path class="cls-4" d="m653.0917,772.16v22c0,4.97-4.03,9-9,9s-9-4.03-9-9v-22c0-4.97-2.02-9.47-5.27-12.73-3.26-3.26-7.76-5.27-12.73-5.27h18c4.97,0,9.47,2.01,12.73,5.27,3.25,3.26,5.27,7.76,5.27,12.73Z"/>
      <path class="cls-4" d="m658.1617,868.5l-12.73,12.72c-3.52,3.51-8.12,5.27-12.73,5.27s-9.21-1.76-12.72-5.27l-1.42-1.41-17.68-17.68c-3.51-3.51-3.51-9.21,0-12.73,3.52-3.51,9.22-3.51,12.73,0l17.68,17.68,1.41,1.42.22.21c3.48,3.37,7.99,5.06,12.51,5.06,4.61,0,9.22-1.76,12.73-5.27Z"/>
      <path class="cls-2" d="m542.5417,893.5h-18c-4.97,0-9.47-2.01-12.73-5.27s-5.27-7.76-5.27-12.73v-158c0-4.97-2.01-9.47-5.27-12.73s-7.76-5.27-12.73-5.27h18c4.97,0,9.47,2.01,12.73,5.27s5.27,7.76,5.27,12.73v158c0,4.97,2.01,9.47,5.27,12.73s7.76,5.27,12.73,5.27Z"/>
      <path class="cls-4" d="m551.5417,781.16v2c0,4.97-4.03,9-9,9s-9-4.03-9-9v-2c0-4.97-2.01-9.47-5.27-12.73-1.11-1.11-2.36-2.07-3.73-2.86-2.65-1.54-5.72-2.41-9-2.41h18c4.97,0,9.47,2.01,12.73,5.27s5.27,7.76,5.27,12.73Z"/>
    </g>
  </g>
</svg>