<?xml version="1.0" encoding="UTF-8"?>
<svg xmlns="http://www.w3.org/2000/svg" viewBox="0 0 1350 1350">
  <defs>
    <style>
      .cls-1 {
        fill: #52afa4;
      }

      .cls-1, .cls-2, .cls-3 {
        stroke-width: 0px;
      }

      .cls-2 {
        fill: #b20729;
      }

      .cls-3 {
        fill: #f2cf69;
      }
    </style>
  </defs>
  <g id="bg04">
    <rect class="cls-2" width="1350" height="1350"/>
  </g>
  <g id="decorate04">
    <g>
      <path class="cls-3" d="m899.7711,899.1666c26.187,24.5556,54.7178,51.6972,80.6551,76.7146,20.3,19.0493,40.4665,38.2413,58.7328,59.2944,6.163,6.9507,12.2165,14.011,17.9617,21.3792.1369.1755.1056.4287-.07.5657-.1487.116-.3536.1107-.4958-.0002-7.3673-5.7476-14.4262-11.8028-21.3759-17.9675-21.0484-18.2718-40.2347-38.4422-59.2788-58.7471-9.6222-9.968-28.9482-30.1473-38.4888-40.1951-12.7316-13.4963-25.5453-26.9107-38.206-40.4782-.1508-.1615-.1422-.4148.0195-.5657.1544-.1441.3938-.1416.5462,0h0Z"/>
      <path class="cls-3" d="m916.9557,877.4426c25.417,20.048,62.0349,49.5818,87.6405,70.196,22.1033,17.326,44.082,34.806,64.3406,54.3064,6.8212,6.4276,13.5428,12.9737,19.9841,19.8535.1521.1624.1437.4174-.0187.5695-.1379.1292-.3432.1421-.4949.0439-7.9132-5.1217-15.5462-10.5769-23.0797-16.1505-22.782-16.4825-43.8767-35.0286-64.8413-53.7173-10.5783-9.1385-31.7662-27.7395-42.1956-37.0502-13.9498-12.4863-27.973-24.8827-41.8538-37.4423-.1638-.1483-.1765-.4013-.0282-.5653.1418-.1567.3832-.1721.547-.0437h0Z"/>
      <path class="cls-3" d="m914.8383,843.5991c25.9509,16.4308,54.2212,34.7658,79.8894,51.849,6.6339,4.3589,13.2771,8.7057,19.9465,13.0167,13.3142,8.6821,25.9505,18.312,38.2415,28.3912,6.1446,5.0526,12.1911,10.2407,17.9732,15.7909.161.1545.1662.4104.0117.5714-.1269.1322-.3228.1589-.4777.0788-21.0504-11.2671-41.132-24.1526-60.2954-38.3469-4.7276-3.5861-14.2865-10.7306-19.06-14.2521-9.5807-6.9725-28.8654-21.0864-38.4069-28.1145-12.7421-9.4623-25.5664-18.8094-38.2757-28.3253-.1769-.1326-.213-.3834-.0805-.5604.1258-.1679.3593-.2082.5339-.0988h0Z"/>
      <path class="cls-3" d="m923.1813,817.8308c14.1869,8.2709,29.9919,16.1882,44.4785,24.0095,15.5164,8.6497,41.0679,23.2499,56.517,32.1219,6.248,3.5503,18.9046,10.6139,25.2054,14.0711,16.8487,9.3009,33.1767,19.4259,49.4408,29.7121,8.1204,5.1733,16.2379,10.3586,24.1852,15.9099.1831.1263.2292.377.1029.5602-.1077.1561-.3085.2115-.4781.1463-9.0282-3.529-17.8561-7.4824-26.5433-11.698-25.271-11.7972-51.6221-28.083-75.1919-43.2059-12.218-7.596-36.7907-22.9743-48.9596-30.6468-16.1624-10.3309-33.1965-19.4973-49.1816-30.3023-.1835-.1232-.2324-.3718-.1093-.5553.118-.1758.3532-.2267.534-.1227h0Z"/>
      <path class="cls-3" d="m917.8756,787.5247c43.1408,18.9036,96.3859,43.6615,139.4921,63.1963,28.0722,12.2467,55.6092,25.6351,82.6693,39.9794,0-.0002-.7625-.2118-.7625-.2118,2.459.4072,4.822,1.1128,7.0714,1.9783,6.5929,2.5488,12.3907,6.6465,18.2411,10.3899.187.1198.2414.3684.1217.5554-.1048.1637-.3086.2256-.4831.1584-8.5339-3.3119-16.804-7.678-26.0002-8.2512-19.0827-7.5884-37.973-15.6551-56.4954-24.5126-31.278-15.4338-77.9202-39.1545-109.5266-54.9295.0005,0-54.6693-27.6291-54.6693-27.6291-.1973-.0998-.2764-.3405-.1767-.5378.0962-.1903.3251-.2698.5182-.1857h0Z"/>
      <path class="cls-3" d="m898.2236,756.1947c45.7123,14.5799,91.0241,30.4504,136.5883,45.4416,28.3774,8.9387,57.285,18.7493,84.7828,30.3269,16.6522,6.9312,33.1749,14.0711,49.3645,22.0903.1988.0987.2799.3398.1812.5385-.087.1755-.2852.2592-.4671.2087-11.6126-3.2154-23.0715-6.8244-34.4818-10.5512-5.7201-1.8241-11.3849-3.7914-17.0796-5.6772-20.9478-7.0469-42.7882-15.0716-63.2821-23.1617-29.434-10.7121-59.3302-21.8426-88.5781-32.9076-22.404-8.5954-44.8436-17.0709-67.2906-25.5527-.2068-.078-.3112-.3088-.2332-.5156.0754-.1997.2946-.3035.4957-.24h0Z"/>
      <path class="cls-3" d="m904.7421,735.9448c57.0222,13.7738,126.2158,31.6591,183.3613,45.7261,24.0651,5.9357,49.0135,13.3004,72.6962,20.6718,12.0295,3.7706,24.0202,7.6906,35.9022,12.0325.2087.0754.3168.3055.2416.5141-.0668.1853-.2577.2909-.4452.2596-12.4666-2.1249-24.8245-4.6716-37.1436-7.3679-24.6244-5.3782-49.1122-11.3852-73.3065-18.4617-24.4704-7.2544-83.6466-24.1303-108.955-31.3936-24.1832-7.074-48.3979-14.0364-72.5577-21.208-.2122-.0622-.3337-.2844-.2716-.4965.0601-.2052.2726-.3251.4783-.2764h0Z"/>
      <path class="cls-3" d="m904.0118,714.6885c32.7253,4.6139,68.58,9.9553,101.3554,15.0888,25.3767,3.5883,50.726,7.37,75.5829,13.7656,8.3086,2.0344,16.5902,4.2214,24.7957,6.8375.2124.0676.3296.2946.262.5071-.0566.1771-.2244.2879-.4016.2806-8.6057-.3583-17.1353-1.1456-25.6379-2.0851-25.5425-2.5219-50.65-7.667-75.7174-13.0042-12.5144-2.4608-37.7311-7.5314-50.2242-10.1041-16.7171-3.5046-33.4546-6.895-50.1544-10.4984-.216-.0466-.3534-.2596-.3067-.4757.0443-.2058.2412-.34.4462-.3121h0Z"/>
      <path class="cls-3" d="m891.1237,692.7318c54.6409,3.7023,126.2403,9.6854,181.2715,13.8321,46.9507,3.047,94.1022,7.8977,140.5802,15.101.2188.0354.3676.2415.3323.4603-.0315.1954-.2017.3348-.3928.3376-13.5137.1173-26.9981-.2336-40.469-.7725-26.5106-1.1041-54.2661-2.8982-80.6166-5.819-57.6752-6.371-142.9292-15.6233-200.7791-22.343-.2194-.0249-.3771-.223-.3522-.4426.0243-.2133.2137-.368.4257-.3539h0Z"/>
      <path class="cls-3" d="m882.9537,674.5874c64.4138-1.5335,142.9028-2.2644,207.5294-3.5521,27.221-.5363,55.7872.0774,83.012,1.1495,13.8352.5568,27.6702,1.2681,41.5051,2.4151.2209.0183.3851.2121.3668.4331-.0165.1984-.175.351-.3672.3668-13.8356,1.146-27.6711,1.8562-41.5064,2.412-27.2324,1.0698-55.7858,1.6813-83.0112,1.1434-28.0223-.6368-95.6043-1.5357-124.5175-1.9647-27.6695-.5396-55.3401-.9632-83.0107-1.603-.221-.0051-.396-.1882-.391-.4091.0049-.2144.1787-.3856.3907-.391h0Z"/>
      <path class="cls-3" d="m868.3204,657.7325c63.7524-7.0324,141.5358-14.4685,205.5208-21.2748,26.9479-2.852,55.3264-4.6721,82.4061-6.11,13.7633-.6987,27.5419-1.2437,41.3648-1.3553.2216-.003.4038.1741.4069.3957.0028.1989-.1422.3665-.3317.4008-13.6084,2.3944-27.2611,4.3554-40.9291,6.1625-40.9621,5.7688-82.2163,8.4935-123.4649,11.1848-48.4265,3.4841-117.0865,8.3908-164.9016,11.3931-.221.0151-.4118-.1514-.4269-.3718-.0145-.214.1449-.4004.3556-.425h0Z"/>
      <path class="cls-3" d="m870.7322,639.9768c64.9155-12.9857,144.2094-27.6879,209.3822-40.4694,27.4505-5.3775,56.4604-9.8614,84.1946-13.6559,14.0958-1.9162,28.2187-3.6804,42.4177-5.0156.2206-.021.4164.1409.4374.3616.0189.1987-.1112.3775-.2984.4262-13.8006,3.5932-27.6775,6.7575-41.5812,9.7696-27.3724,5.9055-56.1604,11.5946-83.8034,15.9151-28.4667,4.3651-97.0082,15.5195-126.3401,20.2479-28.0914,4.3978-56.1637,8.91-84.2723,13.2088-.2186.0335-.4227-.1165-.4561-.3349-.0324-.2122.1113-.4115.3196-.4534h0Z"/>
      <path class="cls-3" d="m889.691,616.4121c7.6533-2.2479,40.6876-12.5581,47.582-14.1932,41.3066-10.925,83.1779-22.9171,124.3179-34.5111,25.4715-6.908,51.3477-12.9202,76.9857-19.1064,5.9949-1.4363,23.0093-5.5293,28.8994-6.9535,9.6573-2.381,19.5186-3.7217,28.9651-6.7775.2105-.07.4377.0439.5077.2544.0621.1868-.0235.3884-.1901.4798-5.8958,3.1876-12.3107,5.2958-18.5786,7.4148-6.3219,2.0376-12.4936,4.2957-18.7878,6.3623-29.822,9.9837-60.4165,17.9293-91.2615,24.056-44.7563,10.7619-89.9945,22.837-134.9997,32.6131-1.9215.4328-40.1577,10.3609-43.2311,11.1335-.2141.0553-.4322-.0733-.4874-.2872-.0543-.2113.0704-.4262.2784-.485h0Z"/>
      <path class="cls-3" d="m911.5947,588.4323c52.0176-20.4587,115.8027-44.3233,168.0805-64.6133,16.6211-6.5029,33.9632-12.3432,50.8989-18.0401,17.1252-5.6768,34.2496-11.1829,51.719-15.8443.2139-.059.4351.0666.4941.2805.052.1887-.0431.3846-.2124.4682-10.8507,5.2474-21.8595,10.0887-32.924,14.7858-33.0538,14.4346-67.2342,25.8725-101.3937,37.3333-40.0114,13.7513-96.7623,33.2231-136.3866,46.3807-.2096.0717-.437-.0402-.5083-.2493-.0689-.202.037-.4226.2325-.5015h0Z"/>
      <path class="cls-3" d="m919.2841,560.5544c9.8071-5.5606,24.7664-14.0919,34.5712-19.3701,2.9013-1.5761,5.7419-3.2834,8.6069-4.9457,5.7632-3.3385,12.0112-5.6072,18.436-7.3717,3.245-.8531,6.5491-1.5694,10.0273-1.8646.2329-.0198.4378.1531.4576.3861.0112.1333-.0428.2595-.1328.345-2.543,2.3892-5.2472,4.3855-7.9976,6.2737-2.7554,1.8773-5.5748,3.6061-8.4525,5.2106-5.7233,3.3198-12.1047,5.213-18.1847,7.7407,0,0-9.1557,3.7783-9.1557,3.7783-8.9293,3.5562-18.7944,7.4406-27.845,10.5462-.2094.0733-.4385-.0371-.5118-.2465-.0648-.1854.0166-.3876.1811-.482h0Z"/>
      <path class="cls-3" d="m909.7509,539.2136c32.9531-20.4125,81.1056-49.5953,114.7642-69.9965,28.6268-17.6542,57.1499-35.5256,87.4773-50.1821,10.0409-5.0155,20.1541-9.8939,30.4684-14.3856.2034-.0886.4401.0045.5286.2079-17.6416,13.6013-37.8889,24.7492-56.8347,36.6978-19.0646,11.7698-38.885,22.22-58.4107,33.1877-34.4732,19.2988-83.3489,46.5668-117.5977,65.1661-.1945.1059-.4373.034-.5429-.1601-.1031-.1899-.0363-.4264.1475-.5352h0Z"/>
      <path class="cls-3" d="m885.0128,528.5898c41.6843-32.901,85.6627-64.7083,128.6672-95.993,17.0304-12.3938,35.6253-24.3509,53.6355-35.2947,9.163-5.5489,18.4169-10.9614,27.9181-16.0046.1963-.1041.4398-.0296.5439.1667.0905.1703.0459.3764-.0957.4959-28.6864,23.807-59.5929,45.7509-90.9308,65.9341-22.165,14.653-44.5913,29.8423-66.4564,44.8735-17.6985,12.0092-35.2419,24.2428-52.8055,36.4648-.1814.1263-.4308.0816-.557-.0998-.1214-.1746-.0837-.4126.0807-.5429h0Z"/>
      <path class="cls-3" d="m883.0538,499.8999c19.5567-16.7606,43.0898-38.6998,62.5639-55.7493,12.61-10.9318,25.7923-21.5323,38.3039-32.5626,21.0129-18.3816,41.4784-37.4273,63.6029-54.5128,13.2413-10.3604,26.6995-20.4272,40.8915-29.4946.1872-.1194.4357-.0645.5551.1228.1043.1635.0745.3748-.0593.505-12.0628,11.7307-24.4322,22.955-36.8348,34.2629-30.2585,27.6601-64.6524,54.8229-97.0041,79.9659-23.8338,19.1111-47.2942,39.4605-71.5145,58.0836-.1755.1344-.4267.1011-.5611-.0743-.1295-.1689-.1024-.4091.0565-.5466h0Z"/>
      <path class="cls-3" d="m886.7313,462.6843c22.5947-24.2321,47.5852-50.6179,70.635-74.5935,17.5298-18.785,35.2027-37.4367,54.7352-54.1869,6.4442-5.6581,12.9979-11.2065,19.8596-16.4469.1771-.1352.4304-.1013.5657.0758.1128.1479.1075.349,0,.4901-5.2408,6.862-10.7896,13.4158-16.4475,19.8603-16.751,19.5319-35.4021,37.2038-54.1877,54.7328-9.2115,8.8678-27.8647,26.6722-37.1556,35.4583-12.4832,11.7215-24.8845,23.5251-37.4388,35.1756-.162.1505-.4153.1411-.5657-.0209-.1433-.1542-.1405-.3925-.0001-.5447h0Z"/>
      <path class="cls-3" d="m871.4755,440.8256c9.5564-11.7833,22.091-29.852,31.047-42.3616,2.5598-3.5657,5.0315-7.2155,7.5715-10.8258,5.1184-7.2282,11.2887-13.7541,18.1116-19.4113,3.4309-2.8297,6.9718-5.4872,10.8037-7.8897.1933-.1215.4486-.0632.57.1302.0822.1307.0816.2908.013.4176-2.1679,3.9806-4.7044,7.6331-7.2562,11.2025-5.1693,7.0551-10.1728,14.0441-16.0629,20.5049-2.9307,3.2316-5.8827,6.4613-8.7045,9.8081-8.2307,9.767-17.3378,20.4969-26.1628,29.6462-3.0144,3.2049-6.1588,6.2922-9.3428,9.3217-.1604.1526-.4141.1464-.5666-.014-.1396-.1466-.1435-.3748-.021-.5288h0Z"/>
      <path class="cls-3" d="m839.5477,439.306c1.915-3.4933,4.8531-6.6261,5.7002-10.5364.0312-.1466.1037-.2615.204-.3604l2.1174-2.2488c2.4003-2.1723,3.1833-5.0382,4.5468-7.8765,14.6096-20.182,27.9104-41.2003,41.5756-62.0367,3.7675-4.8872,7.35-9.9153,10.8668-15.0374l10.4651-15.417c3.2999-5.8164,8.5059-14.2155,12.8222-20.5956,9.133-13.498,19.1589-26.2993,29.12-39.1593,5.0169-6.3867,9.9896-12.8011,15.1076-19.1743.1392-.1735.3928-.2012.5663-.062.1481.1188.1897.3212.1123.4858-3.4897,7.4091-7.4785,14.5533-11.6109,21.5944-8.3277,13.9729-17.311,27.5411-26.3979,40.9822-4.5902,6.764-9.2567,13.4583-13.7669,20.2582-7.5888,9.8195-14.7577,20.0465-22.733,29.6296-13.6588,19.3512-28.9251,40.789-44.3594,59.8789l.1099-.1764c-.9038,1.7264-1.7033,3.7471-2.991,5.5407-1.2148,1.7056-3.0355,3.0874-4.4546,4.5106,0,0,.2039-.3601.2039-.3601-1.1684,4.1502-4.3045,7.0897-6.5164,10.5689-.1184.1866-.3657.2419-.5522.1235-.1795-.1138-.2367-.3482-.1358-.5319h0Z"/>
      <path class="cls-3" d="m804.3536,450.0646c21.4802-39.8262,45.5692-83.2064,67.3782-123.0465,13.0216-24.0924,28.9482-53.2227,44.0364-75.879,9.5487-14.7312,19.0195-29.4118,28.8802-43.9838.1244-.1839.3743-.232.5581-.1076.1617.1094.2182.3163.1449.4895-6.8776,16.2245-15.0421,31.8144-23.5246,47.226-8.3215,14.8655-17.5421,31.0083-26.3991,45.44-16.9603,27.5926-37.233,62.364-54.0404,90.2569-12.1205,20.003-24.139,40.0615-36.3427,60.0078-.1154.1885-.3616.2477-.5501.1324-.1839-.1123-.2446-.3499-.1409-.5357h0Z"/>
      <path class="cls-3" d="m781.8461,444.3892c20.0636-47.0552,45.547-103.9201,65.9062-151.0278,6.1457-14.4324,14.5538-30.2935,21.6825-44.3676,7.6249-14.6499,15.3539-29.2328,24.2744-43.181.1198-.187.3686-.2415.5556-.1217.1629.1044.2249.3073.159.4813-5.8667,15.4646-12.1285,30.6553-18.606,45.8391-6.3918,15.1284-13.7079,30.0224-20.9277,44.781-9.9027,19.9009-33.2185,68.1999-43.2306,88.8329-9.7005,19.6976-19.297,39.4466-29.0898,59.1048-.0985.1978-.3387.2782-.5365.1797-.1927-.0958-.2738-.3268-.1871-.5207h0Z"/>
      <path class="cls-3" d="m765.2561,425.9265c19.6317-54.0193,36.2471-110.2248,55.2722-164.5081,9.1871-22.6124,20.3884-50.5123,30.2755-72.7507.0913-.2027.3295-.2931.5321-.2019.1755.0788.2666.2685.2289.4493-2.1661,10.3522-4.8695,20.5571-7.8592,30.6738-5.6927,19.8849-13.5215,40.1607-21.0124,59.4782-11.5558,29.3344-22.0628,59.0519-33.2074,88.565-7.5328,19.6459-15.1818,39.2573-23.4856,58.5884-.0872.203-.3225.297-.5256.2097-.1948-.0838-.2881-.3065-.2185-.5037h0Z"/>
      <path class="cls-3" d="m742.6378,421.0265c11.916-49.9153,25.815-101.3893,37.1637-151.4757,1.3485-5.6505,3.0607-11.2658,4.7255-16.8288,3.9669-14.8405,9.6358-35.0964,13.9631-49.8381,4.919-16.6494,9.8653-33.2576,15.885-49.585.077-.2082.3082-.3146.5164-.2377.1828.0676.287.2545.2577.4398-2.7197,17.1848-6.1243,34.1627-9.82,51.1363-3.7664,16.9602-7.962,33.8872-13.2533,50.4802-1.898,5.4157-3.8513,10.7614-5.4292,16.2918-3.2416,11.0424-5.8773,22.3141-9.0644,33.4277-3.1075,10.7109-11.2838,38.9022-14.4822,49.9339-6.5664,22.1462-13.022,44.3269-19.6884,66.4579-.0603.215-.2865.3396-.5004.2747-.2041-.0615-.3226-.2724-.2735-.477h0Z"/>
      <path class="cls-3" d="m718.4536,426.5066c7.9904-55.2737,18.8525-122.4525,27.1179-177.87,3.5538-23.6879,8.1028-47.3225,13.761-70.6025,2.7289-11.6753,5.5581-23.3733,9.0452-34.9092.0643-.2125.2886-.3326.501-.2684.1873.0566.3028.2382.2834.426-1.2362,11.9734-2.6576,23.8758-4.2971,35.7773-.9805,7.3672-2.1816,14.8951-3.3847,22.2502-2.3084,16.2378-4.9599,32.706-8.1228,48.7768-4.7644,23.836-15.6048,81.3302-20.2945,105.9559-4.6117,23.5298-9.1096,47.0827-13.8212,70.601-.0434.2167-.2543.357-.4709.3137-.2094-.042-.3472-.2421-.3173-.4508h0Z"/>
      <path class="cls-3" d="m694.5929,446.4626c3.7217-60.1626,9.3902-133.3736,13.3743-193.7137,1.6841-25.4155,4.6237-51.9844,7.9101-77.2606,1.6821-12.8446,3.5182-25.6757,5.7882-38.4686.0388-.2184.2472-.3639.4656-.3252.1946.0345.3313.2044.3313.3954.014,12.994-.406,25.9498-.9799,38.892-1.1534,25.4701-2.8711,52.135-5.626,77.4611-2.918,26.059-9.3211,88.9621-12.1047,115.8699-2.7926,25.7389-5.4695,51.4887-8.362,77.2197-.0247.2196-.2228.3776-.4423.3529-.2128-.0239-.3675-.2117-.3546-.4229h0Z"/>
      <path class="cls-3" d="m674.5999,437.2961c-1.5359-58.6415-2.2697-130.0989-3.5598-188.9349-.5376-24.783.0756-50.7914,1.1463-75.5742.5563-12.5957,1.2671-25.1914,2.4135-37.787.0201-.2209.2155-.3837.4364-.3636.1962.0178.3465.1741.3636.3636,1.1465,12.5956,1.8572,25.1913,2.4135,37.787,1.0708,24.7898,1.6835,50.7867,1.1466,75.5741-.6358,25.5114-1.5321,87.0387-1.9601,113.3618-.5386,25.1906-.9611,50.3818-1.6,75.5732-.0056.2209-.1892.3954-.4102.3898-.2137-.0054-.3841-.1786-.3898-.3898h0Z"/>
      <path class="cls-3" d="m652.6797,424.5366c-5.2927-46.0292-12.6409-113.4908-17.954-159.318-2.4246-20.9022-3.7247-42.9588-4.374-64.0048-.3093-10.7017-.4345-21.4164-.0947-32.1588.007-.2221.1927-.3964.4148-.3894.1917.0061.3485.1489.383.3298,1.0094,5.2819,1.8215,10.5767,2.646,15.8693.7943,5.2953,1.5708,10.5906,2.2593,15.8923,3.6244,26.2745,6.2213,53.2273,7.6891,79.7475.6855,10.4518,4.9522,68.2707,5.8026,79.9484,1.4028,21.3351,2.8784,42.6647,4.0251,64.0171.012.2206-.1572.4093-.3778.4212-.2124.0116-.3952-.1461-.4194-.3546h0Z"/>
      <path class="cls-3" d="m631.2133,428.9382c-11.7987-55.045-24.2553-122.4949-35.191-177.8999-4.5889-23.3391-8.2476-48.0318-11.2848-71.6389-1.5344-11.9998-2.9271-24.0246-3.9014-36.1259-.018-.2212.1468-.415.368-.4329.1953-.0158.3694.1112.4197.2935,4.8347,17.5482,8.739,35.2536,12.4786,53.035,4.8686,23.0267,9.1016,48.1532,12.4129,71.4495,1.0729,7.6121,23.7127,149.9231,25.4845,161.1732.0347.2188-.1142.4238-.3324.4584-.211.0335-.4097-.1057-.4541-.312h0Z"/>
      <path class="cls-3" d="m612.178,441.8668c-3.7468-10.5615-5.8866-21.5799-8.9476-32.3109-3.3678-10.6341-7.1023-21.187-10.494-31.8298-7.5854-24.8929-13.9931-50.3158-21.4295-75.2332-2.2948-7.2155-6.1048-25.1544-8.0003-32.7147-9.1666-26.7091-17.032-57.9632-23.0192-86.7301-1.9882-9.8109-3.8887-19.6382-5.4375-29.5499-.0343-.2192.1157-.4247.3348-.459.1941-.0303.3774.084.4407.2626,12.9682,37.8053,24.2497,76.3756,35.068,114.835.8006,4.1373,4.5662,23.6746,5.2888,27.3408.8677,3.6189,3.2282,12.4505,4.1606,16.1814,5.4605,21.7008,10.4555,43.4393,16.1359,65.0452,2.9536,10.7805,6.245,21.4512,9.1812,32.2509,2.6519,10.8707,4.2608,21.9633,7.4777,32.6611.0648.2112-.0539.4349-.2652.4998-.205.0628-.4226-.0496-.4944-.2492h0Z"/>
      <path class="cls-3" d="m591.7156,445.3314c-16.5388-39.4757-33.0045-81.3252-48.7515-121.1574-6.4553-16.1186-11.958-32.8163-16.5569-49.559-2.347-8.4037-4.5471-16.8557-6.3327-25.4425-.0453-.2179.0946-.4314.3126-.4767.1825-.038.3641.0586.4442.2175,5.9113,11.7539,10.9488,23.7701,15.8643,35.9163,8.3565,19.9698,15.1606,40.9139,21.9339,61.4197,11.2113,32.9499,22.7869,65.7861,33.8347,98.8.0706.2095-.042.4365-.2513.5072-.1997.0673-.4164-.0343-.4973-.2251h0Z"/>
      <path class="cls-3" d="m571.8326,454.6555c-2.1598-9.9857-8.1215-18.3622-13.0709-27.1691,0,0-14.1034-27.0688-14.1034-27.0688-9.2871-18.0874-18.2279-36.3547-27.0032-54.6931-7.7923-16.095-19.1527-38.8435-25.9839-55.1218-7.9602-18.7262-15.7142-37.4776-22.49-56.7021-.0737-.2098.0366-.4395.2463-.5132.1805-.0634.3768.011.4746.1663,10.7717,17.3233,20.108,35.4305,29.0456,53.7246,13.1735,27.4769,24.1059,55.9492,36.8173,83.6344,7.1215,16.1848,17.7041,39.1262,25.1717,55.4125,4.5247,9.0219,10.1373,17.9971,11.6838,28.1914.0334.2185-.1166.4226-.3351.4559-.2123.0327-.4115-.1089-.4528-.317h0Z"/>
      <path class="cls-3" d="m536.9427,436.678c-27.7788-43.2087-59.1265-97.3275-85.9718-141.3004-11.27-18.5518-22.0768-38.608-31.9491-57.9552-5.0069-9.839-9.8789-19.7532-14.3701-29.8791-.0899-.2029.0016-.4403.2045-.5303.1769-.0785.3831-.0148.4918.1363,9.7104,13.4913,18.616,27.412,27.4143,41.4665,14.6769,23.1703,27.7867,47.8086,40.8649,71.847,11.1768,20.1405,36.9316,67.4448,47.8301,86.9514,5.4251,9.604,10.8148,19.2258,16.1767,28.8612.1076.1931.0381.4368-.155.5442-.1884.1051-.4258.0406-.5363-.1416h0Z"/>
      <path class="cls-3" d="m502.8552,429.845c-5.0976-8.2966-11.9157-15.3071-17.8929-23.0003-13.1264-17.2542-27.5074-37.5235-40.5974-54.7582-3.8847-5.1921-7.573-10.5195-11.059-15.9907-7.0008-10.9105-14.0127-21.7759-19.8284-33.6245-.1053-.2013-.0241-.452.1805-.5517.1572-.0772.3405-.0426.4598.0721,7.0776,6.851,13.4387,14.2663,19.7015,21.818,6.2042,7.4938,11.8336,15.5466,17.0435,23.7488,5.9387,9.5862,14.7827,23.2325,21.022,32.8195,6.2438,9.5285,14.6071,23.437,21.2279,32.5378,3.7894,5.2859,7.5746,10.68,10.4443,16.5452.0978.1983.0164.4383-.1819.5362-.1866.092-.4127.0212-.5199-.1522h0Z"/>
      <path class="cls-3" d="m478.1444,441.0188c-29.5424-34.0154-66.7784-75.975-97.0178-109.6547-13.0615-14.5417-25.2272-29.8685-36.8386-45.588-5.7967-7.9038-11.4524-15.9008-16.7043-24.1883-.1182-.1885-.0614-.4372.1271-.5555.1597-.1002.3644-.0728.4946.0519,3.5519,3.4018,6.9467,6.9268,10.3512,10.4414,3.3879,3.5288,6.7608,7.0673,10.0646,10.6609,13.2882,14.3064,26.3061,28.8293,38.5396,44.0479,4.5546,5.6982,13.7932,17.1248,18.4067,22.7745,9.2858,11.2393,27.8808,34.0431,37.0194,45.4064,12.1771,15.2744,24.3552,30.5491,36.1781,46.0987.1338.1759.0996.427-.0763.5608-.1686.1282-.4071.1012-.5443-.056h0Z"/>
      <path class="cls-3" d="m462.6799,463.2427c-26.2103-23.5758-59.292-55.8583-85.239-80.1117,0,0-9.6051-8.808-9.6051-8.808-6.2229-5.7529-12.3567-12.4637-18.2231-18.5549-5.9236-6.2926-11.7918-12.6723-17.536-19.1922-5.7439-6.5167-11.3561-13.1863-16.5365-20.2295-.1321-.1795-.0935-.432.0859-.5641.1501-.1104.352-.1008.4912.0101,6.8268,5.4472,13.4144,11.0813,19.9352,16.8018,6.5148,5.7232,12.9597,11.5328,19.239,17.5391,5.47,5.2297,10.8011,10.6888,15.883,16.2824.8857.8373,18.9135,19.6554,20.2528,21.0372,16.1213,16.6178,37.9262,39.6161,53.839,56.4339.0001,0,17.9706,18.7817,17.9706,18.7817.153.1596.1475.4129-.012.5659-.1521.1457-.3907.1465-.545.0083h0Z"/>
      <path class="cls-3" d="m443.0256,481.2458c-6.6637-4.7421-16.9076-11.9048-23.4335-16.6652-3.877-2.8113-8.2088-5.1035-11.4933-8.671-3.4164-3.626-6.4517-7.4922-8.4388-12.213-.1446-.3295.1949-.7086.5384-.5918,2.5405.7543,4.7828,1.8084,6.9455,2.9467,4.253,2.3023,8.2544,4.9191,11.5764,8.4357,2.8086,3.0916,7.0996,7.2879,10.133,10.24,4.9024,4.9996,10.2636,10.5624,14.7154,15.9312.2939.3372-.1711.8686-.5431.5874h0Z"/>
      <path class="cls-3" d="m443.9222,513.511c-11.6821-6.4343-22.0342-15.0885-32.5018-23.2781-6.319-5.1457-14.7409-5.5336-21.512-10.5203-4.8886-4.0303-8.6532-11.4036-15.3296-12.2286-.4145-.0552-.7747-.2216-1.0912-.4597-31.2581-22.4026-64.2762-42.2142-94.7471-65.7314-10.2094-7.7811-20.3327-15.6963-30.0325-24.2103-.1671-.1466-.1837-.401-.037-.5681.126-.1435.3318-.1758.4932-.089,11.365,6.1105,22.3562,12.7476,33.2637,19.5157,32.8685,20.1257,63.2366,43.9213,94.0845,66.949,0,.0002-1.0913-.4592-1.0913-.4592,4.0647.7344,7.5906,3.246,10.2848,6.1336,2.537,2.4983,4.176,5.5503,6.7879,7.8613,2.4184,1.9838,5.6018,3.3698,8.8337,4.7658,3.9882,1.7248,8.5821,3.5892,11.9622,6.7187,1.4044,1.209,4.6244,4.0438,6.0315,5.2712,7.9864,6.9874,16.039,13.9357,25.01,19.6418.1866.1183.242.3656.1236.5522-.1139.1798-.3487.2371-.5326.1354h0Z"/>
      <path class="cls-3" d="m439.606,539.6224c-22.7499-11.8155-47.5721-25.0272-70.1708-37.3367-5.8419-3.124-11.6963-6.2274-17.5775-9.2851-11.7475-6.1704-22.9223-13.2987-33.7893-20.9141-5.4402-3.8116-10.8028-7.7569-15.9466-12.0789-.1717-.1441-.1942-.4002-.0501-.5719.1131-.1349.2962-.1772.4525-.1197,6.2967,2.3402,12.3748,5.0572,18.3753,7.9078,11.9697,5.7195,23.7256,11.83,34.9317,18.9257,5.5801,3.569,11.187,7.0923,16.8063,10.595,8.44,5.1609,25.3973,15.6582,33.7779,20.9158,11.1915,7.0928,22.4419,14.0854,33.5864,21.2671.1888.1181.245.3688.1241.5561-.1124.1743-.3392.2315-.5199.1389h0Z"/>
      <path class="cls-3" d="m424.5952,558.6752c-26.4407-10.1015-51.7963-22.8611-77.6461-34.3044-8.6662-3.849-17.4097-7.4781-26.2273-10.8572-5.7645-2.7491-11.3308-5.9007-16.7555-8.4932-20.1948-8.3015-40.6585-17.2948-60.0701-27.2032-8.3883-4.0864-17.1115-8.1174-25.3416-12.5585-11.1183-5.9388-22.068-12.0107-33.1161-18.1038-.1947-.1069-.2659-.3514-.159-.5461.0931-.1696.2914-.245.4694-.1912,12.1096,3.6785,23.8051,8.5276,35.4137,13.3088,5.7754,2.4609,11.5757,4.8256,17.3319,7.2096,23.2826,9.3088,45.3703,22.0772,68.2325,32.3086,5.4742,2.8815,11.9903,6.7684,16.3346,9.0594,17.4588,7.3762,34.3665,15.8807,51.1595,24.5822,16.7428,8.6777,33.4604,17.355,50.6794,25.0496.2019.0898.2927.3264.2028.5283-.0867.1948-.3111.2858-.5081.2111h0Z"/>
      <path class="cls-3" d="m426.8871,585.1198c-45.1164-16.6178-90.8214-32.0055-136.5254-46.9637-35.5941-11.1395-71.2272-24.3932-104.7408-40.7775-.1984-.1-.2782-.342-.1783-.5405.0861-.1709.2799-.2531.4582-.2091,5.227,1.2902,10.3822,2.7643,15.5396,4.2265,25.6901,7.4723,51.2212,15.4766,76.2612,24.9086,30.0043,11.4475,60.1697,22.4522,90.0912,34.1339,19.9084,7.8944,39.7748,15.9003,59.3929,24.4794.2025.0887.2949.3246.2063.5271-.0852.1947-.3079.2872-.5049.2153h0Z"/>
      <path class="cls-3" d="m443.2769,613.3241c-56.6482-13.5889-125.3827-31.2463-182.1538-45.1225-23.9122-5.8508-48.7038-13.1283-72.1997-20.5326-11.9393-3.775-23.8388-7.6993-35.6263-12.0446-.2084-.0762-.3157-.3067-.2396-.515.0675-.185.2581-.2899.4454-.2581,12.3775,2.1297,24.643,4.6803,36.8687,7.3803,24.0565,5.3372,49.1519,11.4272,72.7905,18.3171,24.3085,7.1715,83.0981,23.8522,108.239,31.0317,24.0255,6.9952,48.0817,13.8783,72.0821,20.9707.212.0622.3335.2845.2713.4965-.0602.2052-.272.3251-.4776.2765h0Z"/>
      <path class="cls-3" d="m433.8101,632.8196c-33.2134-2.7035-66.1989-10.2857-99.0969-15.2013-31.7814-4.5925-67.6428-8.9619-99.1794-15.1278-21.6038-4.3997-44.0051-9.2566-65.1736-15.3389-.2135-.0615-.3365-.2844-.275-.4978.0538-.1863.2308-.3037.4169-.2894,11.1678.849,22.258,2.1282,33.3202,3.551,27.2207,3.4134,55.4993,8.1806,82.3982,13.6606,21.6085,4.2944,44.2873,7.6187,65.7993,12.1529,27.0478,5.7965,54.5119,12.4678,81.8795,16.2957.2189.0309.3712.2333.3403.4522-.0298.2108-.2201.3597-.4295.3428h0Z"/>
      <path class="cls-3" d="m433.9659,654.2698c-61.9392-4.574-123.8717-9.0641-185.8662-12.8277-24.4016-1.4798-49.9167-4.2298-74.1739-7.4046-12.3286-1.6317-24.641-3.4396-36.9072-5.7031-.2182-.0403-.3623-.2498-.3222-.4679.0358-.1935.205-.3287.3948-.3289,12.4728-.0199,24.9032.3712,37.3213.894,24.4415,1.0411,50.0295,2.5672,74.3411,5.1177,37.0621,3.9486,74.1665,7.447,111.2337,11.3691,24.7013,2.7278,49.403,5.4444,74.0584,8.5554.2192.0277.3745.2279.3469.4471-.0268.212-.216.3641-.4267.3489h0Z"/>
      <path class="cls-3" d="m451.9072,675.3905c-61.4764,1.5378-136.3865,2.2737-198.0662,3.5659-25.9802.5381-53.2446-.074-79.2267-1.144-13.2045-.5559-26.4092-1.2663-39.6142-2.4123-.2208-.019-.3845-.2135-.3656-.4344.017-.1974.1746-.349.3654-.3656,13.204-1.1469,26.4083-1.858,39.6126-2.4147,25.9896-1.0717,53.2422-1.6851,79.2272-1.1489,26.745.6349,91.2464,1.5293,118.842,1.9564,26.408.5377,52.817.9595,79.2258,1.5976.2208.0053.3956.1888.3902.4096-.0051.2141-.1788.3849-.3905.3904h0Z"/>
      <path class="cls-3" d="m448.5906,695.1973c-60.2929,6.8192-133.8617,13.9951-194.3761,20.587-25.4903,2.7706-52.3443,4.5058-77.9762,5.6745-13.0279.5818-26.0692,1.0098-39.1485,1.0038-.2218,0-.4014-.1798-.4014-.4016.0001-.1978.1433-.3621.3316-.3952,12.879-2.2782,25.7962-4.1223,38.7266-5.8125,25.4521-3.3027,52.1857-6.2578,77.7742-7.9584,26.3437-1.6679,89.8227-6.3242,116.9845-8.2721,26.0047-1.7355,52.0002-3.5868,78.0147-5.2224.2206-.0143.4109.1529.4252.3734.0138.2136-.1444.3991-.3546.4235h0Z"/>
      <path class="cls-3" d="m450.9432,715.0868c-59.272,11.197-118.5637,22.2339-177.6734,34.2585-16.3806,3.3388-36.8178,6.724-53.3845,9.5207-17.9138,2.868-35.8673,5.5191-54.0038,6.7301-.2215.0146-.4127-.153-.4274-.3744-.0131-.1956.1165-.3677.2994-.4153,11.7184-3.0624,23.4319-5.9163,35.1623-8.723,5.8568-1.4441,11.7407-2.7539,17.6125-4.1461,27.2638-6.6462,61.2245-11.6637,89.1025-16.0177,47.6524-7.6909,95.3491-15.1597,143.1851-21.6226.219-.0294.4204.1243.45.3433.0284.2115-.1154.4069-.3227.4465h0Z"/>
      <path class="cls-3" d="m466.0839,731.5693c-16.41,5.7929-34.4637,11.9704-51.1084,17.271-4.2852,1.3629-8.5357,2.8588-12.8046,4.2995-8.5643,2.8796-17.4281,4.604-26.3898,5.7629-4.5023.5444-9.0388.9381-13.672.881-.4007.0038-.5708-.5952-.1874-.7776,8.1131-4.2239,16.5686-7.2723,25.1861-10.0795,8.5241-2.842,17.4351-4.1937,26.1592-6.2539,6.5241-1.5602,19.6989-4.6315,26.2422-6.1129,8.7849-1.9215,17.5404-3.9601,26.3593-5.761.2171-.0443.4289.0957.4732.3128.0404.198-.0728.3918-.2578.4577h0Z"/>
      <path class="cls-3" d="m446.8428,758.6429c-57.0674,22.7098-115.7357,45.0046-172.8906,67.7357-23.0106,9.1568-46.9608,16.0503-70.657,23.0514,0,.0002-35.5812,10.6325-35.5812,10.6325-.2125.0635-.4362-.0573-.4998-.2698-.0564-.1888.0341-.3872.2038-.4734,16.6283-8.4542,33.9462-15.4019,51.4177-21.8651,16.9517-6.0859,35.4499-12.7306,52.4027-18.5162,34.8503-11.9603,70.3481-24.823,105.1026-36.8675,23.4102-8.0546,46.7803-16.218,70.2253-24.1783.2092-.071.4364.041.5074.2503.0688.2023-.0349.422-.2309.5004h0Z"/>
      <path class="cls-3" d="m446.3406,781.8811c-44.269,21.1166-88.5422,42.587-132.446,64.4815-33.831,17.404-69.064,33.4019-104.8836,46.243-.2097.0731-.4391-.0376-.5123-.2473-.0638-.1825.0123-.3803.1713-.4766,9.3819-5.6903,18.9419-10.9955,28.5634-16.1714,18.9435-10.1685,39.0194-20.399,58.6545-29.1217,29.025-12.8664,60.8616-27.2732,89.7866-39.9304,20.0569-8.6427,40.1197-17.2679,60.3427-25.5089.2046-.0834.4381.015.5216.2196.0802.197-.0089.4213-.1982.5122h0Z"/>
      <path class="cls-3" d="m431.5835,815.7183c-31.0953,16.5675-63.2063,38.1854-93.4023,56.5501-15.4572,9.6197-30.6119,19.7523-46.5477,28.5793-15.964,8.841-32.1695,17.283-48.9357,24.5823-.2044.0877-.4413-.0069-.529-.2114-.0749-.1745-.0168-.3727.1288-.4814,7.2776-5.6001,14.7672-10.8195,22.3324-15.9039,22.5591-15.4712,46.3577-28.9126,70.3045-42.0794,11.8172-6.738,35.7085-20.2066,47.5938-26.8249,15.9616-8.8,32.0351-17.5151,48.7052-24.9301.202-.0898.4385.0011.5283.203.0859.1928.0044.4182-.1783.5164h0Z"/>
      <path class="cls-3" d="m434.8754,842.0326c-41.4245,29.858-82.9477,62.1779-123.7554,92.9612-16.4373,12.4822-34.4431,23.0743-52.1577,33.4916-8.8126,5.2753-17.4849,10.7171-26.0434,16.549-.1832.1259-.4337.0792-.5594-.104-.1085-.1581-.0876-.3673.0376-.5023,7.1024-7.6073,15.1273-14.345,23.4141-20.6042,16.6628-12.3578,33.6456-23.6682,50.7401-35.2998,24.7677-16.4387,51.6395-36.2424,76.2333-52.9481,17.0804-11.6068,34.2136-23.1354,51.6412-34.2052.1865-.1185.4338-.0634.5525.1231.1139.1792.0664.4154-.1029.5387h0Z"/>
      <path class="cls-3" d="m456.6544,858.2889c-12.4149,13.1914-26.7072,25.6236-40.4874,37.4308-6.9177,5.9405-13.3755,12.4815-20.6757,17.9338-.81.6115-3.1895,2.4235-4.0079,3.0065-5.7807,4.8921-11.9632,8.937-18.3517,13.0334-.1915.123-.4464.0675-.5694-.1239-.085-.1322-.0834-.297-.0121-.4255,2.3365-4.1362,5.3073-7.8171,8.2778-11.3336.9308-1.0918,4.8084-5.5585,5.647-6.5146,4.4719-4.5269,9.3371-8.8419,14.4839-12.5355,7.617-5.3649,25.6533-18.6015,33.4008-24.2832,7.4047-5.3821,14.6117-11.006,21.7488-16.773.1711-.1436.429-.1194.5692.0551.1285.1589.1153.3864-.0233.5297h0Z"/>
      <path class="cls-3" d="m468.689,881.8394c-25.2432,26.8853-53.1386,56.1818-78.8459,82.8199-19.5823,20.8409-39.3064,41.5482-60.8931,60.3563-7.1286,6.3438-14.3669,12.578-21.9133,18.5043-.1749.1374-.4282.1071-.5656-.0679-.1171-.1489-.1122-.355-.0003-.4977,5.9247-7.5471,12.1575-14.7862,18.4995-21.9162,18.805-21.5898,39.5088-41.3178,60.3469-60.9034,10.2335-9.8918,30.9483-29.7617,41.2616-39.5722,13.8519-13.0927,27.6216-26.2673,41.5445-39.2888.1614-.151.4147-.1426.5657.0189.1445.1545.1419.3942,0,.5468h0Z"/>
      <path class="cls-3" d="m480.7744,903.2822c-5.2433,8.6539-13.0834,21.9193-18.5065,30.3129-3.9183,6.361-7.7472,12.9401-13.546,17.8262-3.4539,3.0581-7.1766,5.8217-11.4138,7.7235-.3348.1557-.7221-.2141-.5693-.555.6012-1.4848,1.3349-2.819,2.0517-4.1541,3.5736-6.4162,7.4937-12.6191,12.4532-18.0497,3.5424-3.6784,8.195-9.3793,11.451-13.4045,5.4995-6.623,11.5408-13.9608,17.4441-20.1851.3027-.3321.8972.0813.6356.4858h0Z"/>
      <path class="cls-3" d="m500.801,923.371c-23.4366,34.7935-47.228,69.3627-67.653,106.0279-7.8474,13.0016-17.6004,24.8474-26.3909,36.9647-4.5019,6.796-9.1624,13.6098-14.2003,20.0346-5.7354,7.4336-11.7692,14.6007-18.1819,21.4643-.1519.1628-.407.1714-.5696.0195-.1379-.1289-.1649-.3322-.0773-.4902,4.5586-8.2122,9.4174-16.182,14.1779-24.1606,4.1172-6.8185,8.2841-14.2182,12.3041-21.1055,8.0906-13.0523,18.3211-24.1733,26.9871-36.5871,2.2844-3.2879,5.3079-8.2397,7.4805-11.6789,9.9337-15.8682,20.6355-31.2278,31.6919-46.3111,11.1084-15.0203,22.4141-29.8517,33.7809-44.643.1346-.1753.3859-.2082.5611-.0736.1677.1288.2043.3654.0895.539h0Z"/>
      <path class="cls-3" d="m531.1548,926.5232c-17.9939,35.5306-39.8172,73.381-59.3728,108.2372-14.8458,27.0573-29.963,53.9636-47.1232,79.6448-5.6472,8.6066-11.4294,17.1372-17.5917,25.4547-.1306.1797-.3822.2194-.5619.089-.155-.1127-.2043-.319-.1315-.488,8.4201-18.8414,17.9772-37.108,27.9372-55.1452,14.545-25.9001,32.7288-53.4654,48.0402-79.1163,12.6726-20.6367,28.0446-45.0895,40.2725-65.7676,2.6426-4.4098,5.2399-8.8459,7.8277-13.2895.1111-.191.3561-.2557.5471-.1446.1835.1068.2499.3382.1564.5255h0Z"/>
      <path class="cls-3" d="m561.9307,918.835c-4.4453,14.6718-10.4609,29.5521-16.5213,43.6734-3.0593,7.1135-5.5055,14.5212-9.331,21.2769-3.7927,6.8257-7.8247,13.5624-12.7734,19.6654-.2415.3118-.8003.0945-.7375-.3104.9615-7.9206,3.3953-15.4186,6.2736-22.7641,2.8016-7.2844,7.1211-13.82,10.8049-20.6505l5.5021-10.234c5.5584-10.2152,10.9728-20.461,16.0373-30.9477.0973-.1992.3375-.2818.5368-.1845.1789.0874.2638.2906.2085.4755h0Z"/>
      <path class="cls-3" d="m592.7667,904.7186c-3.7081,11.544-8.9371,24.1484-13.4044,35.501-11.518,36.1041-25.4845,71.5345-36.998,107.5885-4.3467,13.9445-10.3646,33.967-14.6782,48.1231-2.2074,4.5659-4.8821,8.9355-7.1187,13.5203-4.2386,8.3667-8.4472,17.6774-12.0713,26.3586-1.8729,4.4824-3.6674,9.0095-5.4829,13.555-.0823.2064-.3164.307-.5228.2247-.1788-.0712-.278-.2568-.248-.4392,3.3178-19.4138,9.6481-38.3327,18.388-55.977,2.2976-12.1478,9.2552-33.1698,14.7924-47.7577,11.7982-31.679,24.7303-62.8225,36.8886-94.3195l4.5154-11.8527,5.2247-11.575c3.4727-7.6818,6.9292-15.3572,9.9613-23.2175.0795-.2062.3111-.309.5174-.2295.1989.0768.3012.2964.2365.4969h0Z"/>
      <path class="cls-3" d="m609.9691,915.9186c-15.0431,58.6223-29.2474,117.4352-42.9851,176.3774-8.4093,35.185-18.7364,70.5035-31.3606,104.4111-.0801.2071-.3126.3102-.5198.2304-.1816-.0701-.2829-.2599-.2512-.4448,2.1118-11.9542,4.624-23.8071,7.2182-35.6512,6.3267-29.3603,13.7748-59.1082,22.1553-87.9967,8.0373-28.9928,16.0638-58.5949,24.2437-87.509,6.7133-23.2716,13.4717-46.5314,20.7302-69.6368.0663-.2108.2909-.328.5017-.2617.2038.0639.3197.2768.2676.4813h0Z"/>
      <path class="cls-3" d="m632.8867,917.3247c-8.0363,51.2523-17.6086,115.1483-25.1666,166.7193-3.1952,21.9016-7.8223,44.6826-12.8768,66.2469-2.6133,10.969-5.3956,21.8905-8.6647,32.6908-.0651.2124-.2901.3318-.5025.2667-.1842-.0564-.2982-.2358-.2827-.4203.471-5.633,1.1357-11.2252,1.7871-16.8178.6696-5.5896,1.3567-11.1739,2.1293-16.7408,3.5971-27.6546,8.2432-55.7417,13.8366-83.1044,2.0957-10.8394,13.2949-70.7401,15.57-82.86,4.3329-22.0683,8.6463-44.1412,13.3838-66.1266.0467-.2161.2594-.3534.4755-.3069.2082.0449.3431.2453.311.4531h0Z"/>
      <path class="cls-3" d="m654.6941,909.1134c-1.9826,50.8176-5.3986,101.5764-9.0343,152.2986-2.3924,38.0447-5.0698,76.1733-11.1843,113.8819-1.8702,12.5785-3.855,25.1364-6.1411,37.6871-.0396.2182-.2487.363-.4668.3234-.1941-.0352-.3301-.2048-.33-.3952.5466-50.796,6.3591-101.5982,11.7462-152.0529,3.8092-36.5544,7.6869-77.0337,11.2012-113.8172,0,0,3.4108-37.9761,3.4108-37.9761.0194-.2202.2136-.3828.4337-.3634.2129.0188.372.2027.3646.4138h0Z"/>
      <path class="cls-3" d="m675.4001,898.8414c1.5359,61.3312,2.2697,136.0649,3.5598,197.599.5375,25.919-.0755,53.1191-1.1463,79.0398-.5563,13.1732-1.2671,26.3466-2.4135,39.5198-.0192.2209-.2139.3844-.4348.3652-.1974-.0172-.3487-.1744-.3652-.3652-1.1465-13.1732-1.8572-26.3466-2.4135-39.5198-1.0708-25.928-1.6835-53.1162-1.1466-79.0397.6358-26.6815,1.5321-91.0301,1.9601-118.5603.5386-26.3457.9611-52.6922,1.6-79.0388.0054-.2209.1888-.3956.4097-.3904.2141.0053.3849.1788.3903.3904h0Z"/>
      <path class="cls-3" d="m696.7098,917.3734c7.6923,58.5666,12.8618,117.4246,18.992,176.1637,2.4375,23.4993,3.7882,47.071,4.7587,70.6755.2615,5.9008.4353,11.8102.5915,17.7226.1279,5.9144.2684,11.8291.2123,17.7641-.0004.222-.1806.4015-.4025.4012-.1946-.0004-.3572-.1421-.3939-.3258-2.2441-11.6499-4.0221-23.3511-5.6128-35.0702-3.0888-23.0626-5.7095-47.3171-7.0474-70.5281-1.9865-35.3711-4.3404-70.7195-6.7988-106.056-1.5259-23.5658-3.2981-47.1114-5.0947-70.6646-.0169-.2203.1481-.4126.3685-.4294.2127-.0163.3994.1382.4271.347h0Z"/>
      <path class="cls-3" d="m717.9113,916.1505c.6211,3.2428.6681,6.5325.7839,9.8068,1.9721,8.4747,5.5044,18.0414,7.6315,27.2392,0,0,5.4965,27.8583,5.4965,27.8583,5.379,26.762,11.5005,56.495,17.2285,83.3601,4.3472,21.4714,7.2848,43.2384,9.0724,65.0753.6539,6.4183,3.0733,12.9478,1.68,19.4766-.0437.2179-.2561.359-.474.3151-.1862-.0375-.3162-.2013-.3229-.3831-.1753-6.55-3.6597-12.378-5.1706-18.7298-4.7249-21.3429-9.2204-42.7278-12.7256-64.3078-2.4908-16.2119-6.3356-39.5957-9.0968-56.0103-3.0874-18.6397-5.9298-37.4199-8.5443-56.1087-1.5832-9.1757-4.605-18.276-6.159-27.6928.0553-3.2551.238-6.5438-.1883-9.7655-.0303-.2188.1226-.4209.3415-.4511.2105-.0291.4055.1124.4472.3177h0Z"/>
      <path class="cls-3" d="m739.1869,912.1605c19.7242,70.8754,41.2987,141.2788,59.504,212.5775,2.865,11.9506,6.0409,23.6471,9.1224,35.542,3.0734,11.8891,5.9159,23.9701,7.3405,36.2376.0256.2203-.1323.4197-.3527.4453-.195.0226-.3739-.0997-.4301-.2806-3.659-11.7388-7.8062-23.2022-11.9375-34.7527-2.1012-5.7627-4.0773-11.5797-6.046-17.43-5.6673-17.5834-10.539-35.355-14.7365-53.3191-8.1843-35.8891-16.9264-71.5656-26.1023-107.2255-5.9143-23.8123-11.9004-47.6241-17.1388-71.6036-.0471-.2159.0896-.4292.3056-.4763.2087-.0456.4154.0819.4714.2854h0Z"/>
      <path class="cls-3" d="m763.1952,917.4491c16.8104,42.2565,35.0829,88.7113,51.1793,131.4396,8.2999,21.9833,17.1592,43.7623,24.5901,66.0644,7.507,22.2669,15.0112,44.5125,21.1002,67.3384.0607.2152-.0668.4395-.2831.4968-.1888.0504-.3822-.0427-.4646-.212-20.6479-42.4446-36.359-86.7197-50.9625-131.5165-14.6784-43.271-31.3346-90.1758-45.9063-133.3239-.0772-.2107.0343-.4456.2474-.517.2019-.0683.4209.035.4995.2303h0Z"/>
      <path class="cls-3" d="m793.389,926.8352c15.1558,31.0125,37.5116,75.9623,53.032,107.3951,13.5722,26.7197,26.9468,53.5555,37.6234,81.6006,3.6457,9.3145,7.1184,18.7057,10.1603,28.2806.0674.2119-.0498.4383-.2617.5056-.1809.0575-.3743-.023-.4684-.1786-2.6009-4.3021-5.0188-8.6839-7.4488-13.0586-2.4035-4.3871-4.7915-8.7794-7.0978-13.208-11.6431-21.8668-22.5344-44.6903-32.233-67.5238-8.6991-19.6707-21.7913-48.6297-30.4467-68.4054-7.9574-18.3191-15.9483-36.6233-23.5881-55.0779-.0846-.2042.0124-.4384.2166-.523.1958-.081.4197.0061.5122.1934h0Z"/>
      <path class="cls-3" d="m821.5132,928.4893c8.0728,11.4272,16.6938,24.1225,24.3773,35.8793,1.9786,3.0239,4.0848,5.9731,6.1505,8.9471,4.1429,5.9712,7.2948,12.4957,10.0121,19.2357,1.3354,3.3982,2.5552,6.8623,3.3927,10.5442.0954.3738-.3991.6843-.6862.4059-8.0081-7.567-14.5472-16.4254-19.5486-26.1755-2.6956-5.6715-6.884-13.6666-9.8542-19.2968-4.7752-9.3622-9.9964-19.6947-14.5284-29.1262-.1004-.2-.0174-.447.1861-.5426.1784-.0849.3878-.0264.4987.1289h0Z"/>
      <path class="cls-3" d="m840.7172,911.7568c23.4354,31.1081,51.4809,69.744,74.862,101.0704,15.3951,19.904,29.9206,40.3751,43.5277,61.5694.0002-.0001.1801.2761.1801.2761.1306.2008.2162.4272.2569.6488.3077,1.7185.9637,3.4508,1.8738,5.1709,2.9456,5.4227,7.6178,10.3531,9.1784,16.5313.0553.2157-.0747.4353-.2904.4905-.1819.0466-.3677-.0409-.4543-.1982-4.142-7.638-12.7133-12.0569-15.3953-20.7225.0001,0,.4367.9247.4367.9247-10.8023-12.8828-21.2315-26.0614-30.8885-39.7897-18.6208-27.2822-37.9963-55.9993-56.2446-83.4971-9.2332-14.0054-18.5234-27.9685-27.6972-42.0148-.1208-.1851-.0688-.433.1162-.5539.1771-.1157.4126-.0719.5385.0941h0Z"/>
      <path class="cls-3" d="m866.929,902.4022c20.894,23.4602,50.8956,57.8437,71.9139,81.838,18.2467,20.2473,36.3895,40.5862,52.3818,62.7063,5.416,7.3102,10.7119,14.7181,15.6689,22.3997.1206.1869.0668.4363-.1201.5569-.1592.1031-.3649.0787-.4961-.0466-6.7219-6.218-13.1049-12.71-19.3679-19.2992-18.9947-19.5784-36.0776-40.8085-52.9616-62.1946-8.5885-10.5016-25.6852-31.8606-34.0484-42.5446-11.1956-14.3101-22.4781-28.5431-33.5901-42.9094-.1351-.1748-.103-.4262.0718-.5613.1692-.1309.4101-.1047.5478.0549h0Z"/>
    </g>
  </g>
  <g id="_新年快樂03" data-name="新年快樂03">
    <g>
      <path class="cls-3" d="m856.6622,469.1625v18c0,9.9401-8.06,18-18,18h-67.54c-9.94,0-18,8.06-18,18v-18c0-9.94,8.06-18,18-18h67.54c9.94,0,18-8.0599,18-18Z"/>
      <path class="cls-1" d="m753.1216,456.5023c-4.97,0-9.47,2.0101-12.73,5.2701-3.26,3.2599-5.27,7.7599-5.27,12.7299v30.66c0,4.9701-2.01,9.4701-5.27,12.7301-3.26,3.2599-7.76,5.2699-12.73,5.2699h-18c4.97,0,9.47-2.01,12.73-5.2699,3.26-3.26,5.27-7.76,5.27-12.7301v-30.66c0-4.97,2.01-9.47,5.27-12.7299,3.26-3.26,7.76-5.2701,12.73-5.2701h18Z"/>
      <path class="cls-1" d="m839.7916,523.1623v18c0,4.9701-2.02,9.4701-5.27,12.7301-3.26,3.2599-7.76,5.2699-12.73,5.2699h-20v-18h20c4.97,0,9.47-2.01,12.73-5.2699,3.25-3.26,5.27-7.76,5.27-12.7301Z"/>
      <rect class="cls-1" x="783.7916" y="541.1623" width="18" height="18"/>
      <path class="cls-3" d="m868.4583,579.5143h-164c-9.9412,0-18,8.0587-18,18v18c0-9.9411,8.0589-18,18-18h164c9.9411,0,18-8.0589,18-18v-18c0,9.9411-8.0589,18-18,18Z"/>
      <path class="cls-3" d="m801.7916,638.4977v-142.3355h-18v142.3355c0,9.9409,8.0589,17.9997,18,17.9997l18,.0003c-9.9411-.0003-18-8.0591-18-18Z"/>
      <path class="cls-1" d="m753.1216,541.1623c-4.97,0-9.47,2.01-12.73,5.27-3.26,3.2601-5.27,7.7601-5.27,12.73v2c0,4.9701-4.03,9-9,9s-9-4.0299-9-9v-2c0-4.9699,2.01-9.4699,5.27-12.73,3.26-3.26,7.76-5.27,12.73-5.27h18Z"/>
      <path class="cls-1" d="m783.7916,541.1623v18h-20.67v-.06c-.33.0401-.66.06-1,.06-4.97,0-9-4.0299-9-9s4.03-9,9-9c.34,0,.67.02,1,.06v-.06h20.67Z"/>
    </g>
    <g>
      <path class="cls-1" d="m815.4583,893.5h-18c-4.97,0-9.47-2.01-12.73-5.27s-5.27-7.76-5.27-12.73v-66.95h18v66.95c0,4.97,2.01,9.47,5.27,12.73s7.76,5.27,12.73,5.27Z"/>
      <path class="cls-1" d="m888.4583,798.51v18c0,4.97-2.01,9.47-5.27,12.73-3.26,3.25-7.76,5.27-12.73,5.27h-164c-4.97,0-9.47,2.02-12.73,5.27-3.26,3.26-5.27,7.76-5.27,12.73v-18c0-4.97,2.01-9.47,5.27-12.73,3.26-3.25,7.76-5.27,12.73-5.27h164c4.97,0,9.47-2.02,12.73-5.27,3.26-3.26,5.27-7.76,5.27-12.73Z"/>
      <path class="cls-1" d="m730.7983,693.5v18c0,4.97-2.01,9.47-5.27,12.73s-7.76,5.27-12.73,5.27h-2c-4.81,0-8.75-3.78-8.99-8.54-.01-.15-.01-.31-.01-.46,0-4.98,4.03-9,9-9h2c4.97,0,9.47-2.01,12.73-5.27s5.27-7.76,5.27-12.73Z"/>
      <path class="cls-1" d="m730.7983,746.05v18c0,4.97-2.01,9.47-5.27,12.73s-7.76,5.27-12.73,5.27h-2c-4.81,0-8.75-3.78-8.99-8.54-.01-.15-.01-.31-.01-.46,0-4.98,4.03-9,9-9h2c4.97,0,9.47-2.01,12.73-5.27s5.27-7.76,5.27-12.73Z"/>
      <path class="cls-1" d="m857.4616,746.055v18c0,4.97-2.0101,9.47-5.27,12.73-3.26,3.26-7.76,5.27-12.73,5.27h-2c-4.81,0-8.75-3.78-8.99-8.54-.01-.15-.01-.31-.01-.46,0-4.98,4.03-9,9-9h2c4.97,0,9.47-2.01,12.73-5.27,3.2599-3.26,5.27-7.76,5.27-12.73Z"/>
      <path class="cls-1" d="m857.4616,693.4952v18c0,4.97-2.0101,9.47-5.27,12.73-3.26,3.26-7.76,5.27-12.73,5.27h-2c-4.81,0-8.75-3.78-8.99-8.54-.01-.15-.01-.31-.01-.46,0-4.98,4.03-9,9-9h2c4.97,0,9.47-2.01,12.73-5.27,3.2599-3.26,5.27-7.76,5.27-12.73Z"/>
      <path class="cls-3" d="m802.9583,693.5v18c0,4.97-2.01,9.47-5.27,12.73s-7.76,5.27-12.73,5.27h-2c-4.97,0-9-4.03-9-9,0-4.98,4.03-9,9-9h2c4.97,0,9.47-2.01,12.73-5.27s5.27-7.76,5.27-12.73Z"/>
      <path class="cls-3" d="m776.9583,750.55v18c0,4.97,2.01,9.47,5.27,12.73s7.76,5.27,12.73,5.27h2c4.97,0,9-4.03,9-9,0-4.98-4.03-9-9-9h-2c-4.97,0-9.47-2.01-12.73-5.27s-5.27-7.76-5.27-12.73Z"/>
      <path class="cls-1" d="m741.7983,720.5v18c0,4.97-2.01,9.47-5.27,12.73s-7.76,5.27-12.73,5.27h-4c-4.97,0-9.47-2.01-12.73-5.27s-5.27-7.76-5.27-12.73v-18c0,.15,0,.31.01.46.12,4.79,2.1,9.11,5.26,12.27,3.26,3.26,7.76,5.27,12.73,5.27h4c4.97,0,9.47-2.01,12.73-5.27s5.27-7.76,5.27-12.73Z"/>
      <path class="cls-1" d="m741.7983,773.06v18c0,4.97-2.01,9.47-5.27,12.73s-7.76,5.27-12.73,5.27h-4c-4.97,0-9.47-2.01-12.73-5.27s-5.27-7.76-5.27-12.73v-18c0,.15,0,.31.01.46.12,4.79,2.1,9.11,5.26,12.27,3.26,3.26,7.76,5.27,12.73,5.27h4c4.97,0,9.47-2.01,12.73-5.27s5.27-7.76,5.27-12.73Z"/>
      <path class="cls-1" d="m868.4616,773.0551v18c0,4.97-2.01,9.47-5.27,12.73s-7.76,5.27-12.73,5.27h-4c-4.97,0-9.47-2.01-12.73-5.27-3.26-3.26-5.27-7.76-5.27-12.73v-18c0,.15,0,.31.01.46.12,4.79,2.1,9.11,5.26,12.27,3.26,3.26,7.76,5.27,12.73,5.27h4c4.97,0,9.47-2.01,12.73-5.27s5.27-7.76,5.27-12.73Z"/>
      <path class="cls-1" d="m868.4616,720.4952v18c0,4.97-2.01,9.47-5.2699,12.73-3.2601,3.26-7.7601,5.27-12.7301,5.27h-4c-4.97,0-9.47-2.01-12.73-5.27-3.26-3.26-5.27-7.76-5.27-12.73v-18c0,.15,0,.31.01.46.12,4.79,2.1001,9.11,5.26,12.27,3.26,3.26,7.76,5.27,12.73,5.27h4c4.97,0,9.47-2.01,12.7301-5.27,3.2599-3.26,5.2699-7.76,5.2699-12.73Z"/>
      <g>
        <path class="cls-1" d="m815.4583,757.55v42c0,4.98-4.03,9-9,9s-9-4.02-9-9v-42c0-4.97-2.01-9.47-5.27-12.73-3.26-3.25-7.76-5.27-12.73-5.27h18c4.97,0,9.47,2.02,12.73,5.27,3.26,3.26,5.27,7.76,5.27,12.73Z"/>
        <path class="cls-1" d="m797.4583,808.55h-18c-4.97,0-9.47-2.01-12.73-5.27-3.26-3.25-5.27-7.75-5.27-12.73v-42c0-4.97,4.03-9,9-9s9,4.03,9,9v42c0,4.98,2.01,9.48,5.27,12.73,3.26,3.26,7.76,5.27,12.73,5.27Z"/>
      </g>
      <path class="cls-3" d="m881.7083,865.5l-12.73,12.72c-3.51,3.51-8.12,5.27-12.73,5.27s-9.22-1.76-12.73-5.27l-1.41-1.41-17.68-17.68c-3.51-3.51-3.51-9.21,0-12.73,3.52-3.51,9.22-3.51,12.73,0l17.68,17.68,1.41,1.42.22.21c3.49,3.37,7.99,5.06,12.51,5.06,4.61,0,9.21-1.76,12.73-5.27Z"/>
      <path class="cls-3" d="m752.4883,859.13l-17.67,17.68-1.42,1.41c-3.51,3.51-8.12,5.27-12.73,5.27-4.6,0-9.2-1.76-12.72-5.27l-12.73-12.72c3.51,3.51,8.12,5.27,12.73,5.27,4.6,0,9.2-1.76,12.72-5.27l1.42-1.42,17.68-17.68c3.51-3.51,9.21-3.51,12.72,0,3.52,3.52,3.52,9.22,0,12.73Z"/>
      <path class="cls-3" d="m755.1283,789.15c0,4.61-1.76,9.22-5.27,12.73l-12.73,12.73c3.52-3.52,5.27-8.12,5.27-12.72,0-4.61-1.75-9.22-5.27-12.73l-1.41-1.42c-3.52-3.51-3.52-9.21,0-12.73,3.51-3.51,9.21-3.51,12.72,0l1.42,1.42c3.51,3.52,5.27,8.12,5.27,12.72Z"/>
      <path class="cls-3" d="m881.7883,789.15c0,4.61-1.76,9.22-5.27,12.73l-12.72,12.73c3.51-3.52,5.27-8.12,5.27-12.72,0-4.61-1.76-9.22-5.27-12.73l-1.42-1.42c-3.51-3.51-3.51-9.21,0-12.73,3.52-3.51,9.22-3.51,12.73,0l1.41,1.42c3.51,3.52,5.27,8.12,5.27,12.72Z"/>
    </g>
    <g>
      <path class="cls-1" d="m507.4917,524.76l-1.47.85c-7.31,4.22-9.82,13.57-5.6,20.89l-7.64-13.25-.14-.25c-4.15-7.17-1.69-16.34,5.49-20.49l1.72-.99c3.65-2.11,8.33-.86,10.44,2.8,2.11,3.65.86,8.33-2.8,10.44Z"/>
      <path class="cls-1" d="m529.2817,544.48l-1.72.99c-3.66,2.11-8.33.86-10.44-2.8-2.11-3.65-.86-8.33,2.8-10.44l1.47-.85c7.31-4.22,9.81-13.57,5.59-20.88l7.65,13.24.14.25c4.14,7.17,1.69,16.34-5.49,20.49Z"/>
      <path class="cls-3" d="m648.2017,456.5v18c0,9.94-8.06,18-18,18h-37.33c-9.94,0-18,8.05-18,18v-18c0-9.95,8.06-18,18-18h37.33c9.94,0,18-8.06,18-18Z"/>
      <path class="cls-3" d="m549.5765,510.4952c0-9.9412-8.0589-18-18-18h-35.8715c-9.9411,0-18-8.0589-18-18v18c0,9.9411,8.0589,18,18,18h35.8715c9.9411,0,17.9999,8.0589,18,18v-18s0,0,0,0Z"/>
      <path class="cls-3" d="m504.7017,582.5v18h-23.16c-9.94,0-18-8.06-18-18v-18c0,9.94,8.06,18,18,18h23.16Z"/>
      <path class="cls-3" d="m564.2017,600.5v18c0-9.95-8.06-18-18-18h-23.5v-18h23.5c9.94,0,18,8.05,18,18Z"/>
      <path class="cls-3" d="m661.5417,656.5h-18c-9.94,0-18-8.06-18-18v-81.8c0-9.94-8.06-18-18-18h18c9.94,0,18,8.06,18,18v81.8c0,9.94,8.06,18,18,18Z"/>
      <g>
        <path class="cls-3" d="m549.5717,564.5v18c0-9.95-8.05-18-18-18h-35.87c-9.94,0-18-8.06-18-18v-18c0,9.94,8.06,18,18,18h35.87c9.95,0,18,8.05,18,18Z"/>
        <path class="cls-3" d="m540.7017,656.5h-18c-9.94,0-18-8.06-18-18v-74h18v74c0,9.94,8.06,18,18,18Z"/>
      </g>
      <path class="cls-3" d="m592.8717,519.4951c0-4.9706-4.0295-9-9-9s-9,4.0294-9,9h0v99.0001c0,9.9411-8.0589,18-18,18h18c9.9411,0,18-8.0589,18-18v-99.0001h0Z"/>
      <path class="cls-1" d="m528.2017,474.5v18c0-9.95-8.06-18-18-18h-2c-4.97,0-9-4.03-9-9,0-4.98,4.03-9,9-9h2c9.94,0,18,8.05,18,18Z"/>
      <path class="cls-1" d="m497.5417,616.5v12c0,4.97-2.01,9.47-5.27,12.73s-7.76,5.27-12.73,5.27h-18c4.97,0,9.47-2.01,12.73-5.27s5.27-7.76,5.27-12.73v-12c0-4.98,4.03-9,9-9s9,4.02,9,9Z"/>
      <path class="cls-1" d="m564.2017,636.5h-18c-4.97,0-9.47-2.01-12.73-5.27s-5.27-7.76-5.27-12.73v-2c0-4.98,4.03-9,9-9s9,4.02,9,9v2c0,4.97,2.01,9.47,5.27,12.73s7.76,5.27,12.73,5.27Z"/>
      <path class="cls-1" d="m661.5417,502.7v18c0,4.97-2.01,9.47-5.27,12.73-3.26,3.26-7.76,5.27-12.73,5.27h-41.67c-4.97,0-9-4.03-9-9s4.03-9,9-9h41.67c4.97,0,9.47-2.01,12.73-5.27,3.26-3.26,5.27-7.76,5.27-12.73Z"/>
    </g>
    <g>
      <g>
        <path class="cls-1" d="m599.0817,811.83c-1.05,5.77-2.41,11.85-4.15,18-5.08,17.97-13.42,36.56-27.13,49.98l-1.41,1.41c-3.52,3.51-8.12,5.27-12.73,5.27s-9.21-1.76-12.73-5.27l-12.73-12.72c3.51,3.51,8.12,5.27,12.73,5.27,4.52,0,9.03-1.69,12.51-5.06l.22-.21,1.41-1.42c9.06-9.72,15.59-22.89,20.2-37.25,1.87-5.85,3.44-11.9,4.75-18,2.9-13.56,4.51-27.35,5.37-39.67h17.4v.01c.01.51.28,17.9-3.71,39.66Z"/>
        <path class="cls-1" d="m603.8717,727.16v2s.62,10.08.07,25h-17.73c.32-14.96-.34-25-.34-25v-2c0-4.97,2.02-9.47,5.27-12.73,3.26-3.26,7.76-5.27,12.73-5.27h18c-4.97,0-9.47,2.01-12.73,5.27-3.25,3.26-5.27,7.76-5.27,12.73Z"/>
      </g>
      <g>
        <path class="cls-3" d="m506.5417,763.16v2.41c-1.37.79-2.62,1.75-3.73,2.86-3.26,3.26-5.27,7.76-5.27,12.73v30.67c0,4.97-2.01,9.47-5.27,12.73-3.26,3.25-7.76,5.27-12.73,5.27h-18c4.97,0,9.47-2.02,12.73-5.27,3.26-3.26,5.27-7.76,5.27-12.73v-30.67c0-4.97,2.01-9.47,5.27-12.73s7.76-5.27,12.73-5.27h9Z"/>
        <path class="cls-3" d="m515.5417,763.16c-3.28,0-6.35.87-9,2.41v-2.41h9Z"/>
      </g>
      <path class="cls-1" d="m643.2051,811.8284h-2.0001s-93.3334,0-93.3334,0h0s-1.9999,0-1.9999,0c-9.9411,0-18-8.0589-18-18v18c0,9.9411,8.0589,18,18,18h2s93.3333,0,93.3333,0h0s2,0,2,0c9.9411,0,18,8.0589,18,18v-18c0-9.9411-8.0588-18-17.9999-18Z"/>
      <path class="cls-3" d="m617.0917,763.16c0,4.97-4.03,9-9,9h-33.55c-4.97,0-9.47-2.01-12.73-5.27s-5.27-7.76-5.27-12.73v-18c0,4.97,2.01,9.47,5.27,12.73s7.76,5.27,12.73,5.27h33.55c4.97,0,9,4.03,9,9Z"/>
      <path class="cls-3" d="m653.0917,772.16v22c0,4.97-4.03,9-9,9s-9-4.03-9-9v-22c0-4.97-2.02-9.47-5.27-12.73-3.26-3.26-7.76-5.27-12.73-5.27h18c4.97,0,9.47,2.01,12.73,5.27,3.25,3.26,5.27,7.76,5.27,12.73Z"/>
      <path class="cls-3" d="m658.1617,868.5l-12.73,12.72c-3.52,3.51-8.12,5.27-12.73,5.27s-9.21-1.76-12.72-5.27l-1.42-1.41-17.68-17.68c-3.51-3.51-3.51-9.21,0-12.73,3.52-3.51,9.22-3.51,12.73,0l17.68,17.68,1.41,1.42.22.21c3.48,3.37,7.99,5.06,12.51,5.06,4.61,0,9.22-1.76,12.73-5.27Z"/>
      <path class="cls-1" d="m542.5417,893.5h-18c-4.97,0-9.47-2.01-12.73-5.27s-5.27-7.76-5.27-12.73v-158c0-4.97-2.01-9.47-5.27-12.73s-7.76-5.27-12.73-5.27h18c4.97,0,9.47,2.01,12.73,5.27s5.27,7.76,5.27,12.73v158c0,4.97,2.01,9.47,5.27,12.73s7.76,5.27,12.73,5.27Z"/>
      <path class="cls-3" d="m551.5417,781.16v2c0,4.97-4.03,9-9,9s-9-4.03-9-9v-2c0-4.97-2.01-9.47-5.27-12.73-1.11-1.11-2.36-2.07-3.73-2.86-2.65-1.54-5.72-2.41-9-2.41h18c4.97,0,9.47,2.01,12.73,5.27s5.27,7.76,5.27,12.73Z"/>
    </g>
  </g>
</svg>